<?xml version="1.0" encoding="UTF-8" standalone="no"?>
<!-- Generator: Adobe Illustrator 19.0.0, SVG Export Plug-In . SVG Version: 6.00 Build 0)  -->

<svg
   xmlns:dc="http://purl.org/dc/elements/1.1/"
   xmlns:cc="http://creativecommons.org/ns#"
   xmlns:rdf="http://www.w3.org/1999/02/22-rdf-syntax-ns#"
   xmlns:svg="http://www.w3.org/2000/svg"
   xmlns="http://www.w3.org/2000/svg"
   xmlns:sodipodi="http://sodipodi.sourceforge.net/DTD/sodipodi-0.dtd"
   xmlns:inkscape="http://www.inkscape.org/namespaces/inkscape"
   version="1.1"
   id="Layer_1"
   x="0px"
   y="0px"
   viewBox="0 0 489.143 489.143"
   style="enable-background:new 0 0 489.143 489.143;"
   xml:space="preserve"
   sodipodi:docname="rocket.svg"
   inkscape:version="0.92.1 r15371"><metadata
     id="metadata59"><rdf:RDF><cc:Work
         rdf:about=""><dc:format>image/svg+xml</dc:format><dc:type
           rdf:resource="http://purl.org/dc/dcmitype/StillImage" /><dc:title></dc:title></cc:Work></rdf:RDF></metadata><defs
     id="defs57"><filter
       inkscape:collect="always"
       style="color-interpolation-filters:sRGB"
       id="filter4583"
       x="-0.14880319"
       width="1.2976064"
       y="-0.14879681"
       height="1.2975936"><feGaussianBlur
         inkscape:collect="always"
         stdDeviation="13.295077"
         id="feGaussianBlur4585" /></filter><clipPath
       clipPathUnits="userSpaceOnUse"
       id="clipPath4604"><rect
         style="opacity:1;vector-effect:none;fill:none;fill-opacity:1;fill-rule:evenodd;stroke:#ff0000;stroke-width:0.37795275;stroke-linecap:butt;stroke-linejoin:miter;stroke-miterlimit:4;stroke-dasharray:none;stroke-dashoffset:0;stroke-opacity:1"
         id="rect4606"
         width="315.09921"
         height="310.70248"
         x="26.380398"
         y="141.80109"
         rx="2.29493"
         ry="1.85542" /></clipPath><clipPath
       clipPathUnits="userSpaceOnUse"
       id="clipPath4608"><rect
         style="opacity:1;vector-effect:none;fill:none;fill-opacity:1;fill-rule:evenodd;stroke:#ff0000;stroke-width:0.37795275;stroke-linecap:butt;stroke-linejoin:miter;stroke-miterlimit:4;stroke-dasharray:none;stroke-dashoffset:0;stroke-opacity:1"
         id="rect4610"
         width="315.09921"
         height="310.70248"
         x="26.380398"
         y="141.80109"
         rx="2.29493"
         ry="1.85542" /></clipPath><clipPath
       clipPathUnits="userSpaceOnUse"
       id="clipPath4612"><rect
         style="opacity:1;vector-effect:none;fill:none;fill-opacity:1;fill-rule:evenodd;stroke:#ff0000;stroke-width:0.37795275;stroke-linecap:butt;stroke-linejoin:miter;stroke-miterlimit:4;stroke-dasharray:none;stroke-dashoffset:0;stroke-opacity:1"
         id="rect4614"
         width="315.09921"
         height="310.70248"
         x="26.380398"
         y="141.80109"
         rx="2.29493"
         ry="1.85542" /></clipPath><clipPath
       clipPathUnits="userSpaceOnUse"
       id="clipPath4616"><rect
         style="opacity:1;vector-effect:none;fill:none;fill-opacity:1;fill-rule:evenodd;stroke:#ff0000;stroke-width:0.37795275;stroke-linecap:butt;stroke-linejoin:miter;stroke-miterlimit:4;stroke-dasharray:none;stroke-dashoffset:0;stroke-opacity:1"
         id="rect4618"
         width="315.09921"
         height="310.70248"
         x="26.380398"
         y="141.80109"
         rx="2.29493"
         ry="1.85542" /></clipPath><clipPath
       clipPathUnits="userSpaceOnUse"
       id="clipPath4620"><rect
         style="opacity:1;vector-effect:none;fill:none;fill-opacity:1;fill-rule:evenodd;stroke:#ff0000;stroke-width:0.37795275;stroke-linecap:butt;stroke-linejoin:miter;stroke-miterlimit:4;stroke-dasharray:none;stroke-dashoffset:0;stroke-opacity:1"
         id="rect4622"
         width="747.93286"
         height="737.49658"
         x="-153.25705"
         y="-89.796562"
         rx="2.29493"
         ry="1.85542" /></clipPath><clipPath
       clipPathUnits="userSpaceOnUse"
       id="clipPath4624"><rect
         style="opacity:1;vector-effect:none;fill:none;fill-opacity:1;fill-rule:evenodd;stroke:#ff0000;stroke-width:0.37795275;stroke-linecap:butt;stroke-linejoin:miter;stroke-miterlimit:4;stroke-dasharray:none;stroke-dashoffset:0;stroke-opacity:1"
         id="rect4626"
         width="315.09921"
         height="310.70248"
         x="26.380398"
         y="141.80109"
         rx="2.29493"
         ry="1.85542" /></clipPath><clipPath
       clipPathUnits="userSpaceOnUse"
       id="clipPath4628"><rect
         style="opacity:1;vector-effect:none;fill:none;fill-opacity:1;fill-rule:evenodd;stroke:#ff0000;stroke-width:0.37795275;stroke-linecap:butt;stroke-linejoin:miter;stroke-miterlimit:4;stroke-dasharray:none;stroke-dashoffset:0;stroke-opacity:1"
         id="rect4630"
         width="315.09921"
         height="310.70248"
         x="26.380398"
         y="141.80109"
         rx="2.29493"
         ry="1.85542" /></clipPath><clipPath
       clipPathUnits="userSpaceOnUse"
       id="clipPath4632"><rect
         style="opacity:1;vector-effect:none;fill:none;fill-opacity:1;fill-rule:evenodd;stroke:#ff0000;stroke-width:0.37795275;stroke-linecap:butt;stroke-linejoin:miter;stroke-miterlimit:4;stroke-dasharray:none;stroke-dashoffset:0;stroke-opacity:1"
         id="rect4634"
         width="747.93286"
         height="737.49658"
         x="-115.95322"
         y="-133.91057"
         rx="2.29493"
         ry="1.85542" /></clipPath><clipPath
       clipPathUnits="userSpaceOnUse"
       id="clipPath4636"><rect
         style="opacity:1;vector-effect:none;fill:none;fill-opacity:1;fill-rule:evenodd;stroke:#ff0000;stroke-width:0.37795275;stroke-linecap:butt;stroke-linejoin:miter;stroke-miterlimit:4;stroke-dasharray:none;stroke-dashoffset:0;stroke-opacity:1"
         id="rect4638"
         width="747.93286"
         height="737.49658"
         x="-85.176094"
         y="-110.46133"
         rx="2.29493"
         ry="1.85542" /></clipPath><clipPath
       clipPathUnits="userSpaceOnUse"
       id="clipPath4640"><rect
         style="opacity:1;vector-effect:none;fill:none;fill-opacity:1;fill-rule:evenodd;stroke:#ff0000;stroke-width:0.37795275;stroke-linecap:butt;stroke-linejoin:miter;stroke-miterlimit:4;stroke-dasharray:none;stroke-dashoffset:0;stroke-opacity:1"
         id="rect4642"
         width="251.12837"
         height="284.8707"
         x="380.12045"
         y="408.16489"
         rx="2.29493"
         ry="1.85542" /></clipPath><clipPath
       clipPathUnits="userSpaceOnUse"
       id="clipPath4644"><rect
         style="opacity:1;vector-effect:none;fill:none;fill-opacity:1;fill-rule:evenodd;stroke:#ff0000;stroke-width:0.37795275;stroke-linecap:butt;stroke-linejoin:miter;stroke-miterlimit:4;stroke-dasharray:none;stroke-dashoffset:0;stroke-opacity:1"
         id="rect4646"
         width="315.09921"
         height="310.70248"
         x="26.380398"
         y="141.80109"
         rx="2.29493"
         ry="1.85542" /></clipPath><clipPath
       clipPathUnits="userSpaceOnUse"
       id="clipPath4985"><path
         style="fill:none;stroke:#000000;stroke-width:0.26458332px;stroke-linecap:butt;stroke-linejoin:miter;stroke-opacity:1"
         d="m 117.92857,-2433.5 c -1.00794,-2.5198 -2.01587,-5.0396 -3.02381,-7.5595 -1.00794,-0.504 -2.46471,-0.5335 -3.02381,-1.5119 -1.58138,-2.7674 -1.59837,-6.2206 -3.02381,-9.0714 -14.260817,-28.5217 -0.56652,0.6621 -9.071425,-12.0953 -1.250193,-1.8752 -2.015876,-4.0317 -3.023809,-6.0476 -7.173738,-14.3474 -3.38038,-5.8942 -10.583336,-25.7024 -3.190415,-8.7736 -8.192847,-23.078 -12.095239,-31.75 -4.161983,-9.2488 -9.488017,-17.9462 -13.60714,-27.2143 -2.204482,-4.96 -3.980947,-10.0999 -6.047618,-15.119 -4.211434,-10.2277 -5.454785,-11.8286 -9.071431,-22.6786 -1.160221,-3.4806 -1.944825,-7.0766 -3.023809,-10.5833 -1.874723,-6.0928 -4.215847,-12.037 -6.047618,-18.1428 -1.580235,-5.2675 -1.790666,-8.058 -3.023809,-13.6072 -1.447117,-6.512 -3.796363,-13.0005 -4.535715,-19.6548 -0.222615,-2.0034 0,-4.0317 0,-6.0476 0,-2.0158 0,-4.0317 0,-6.0475 0,-6.0476 0,-12.0955 0,-18.1431 0,-8.0634 0,-16.1268 0,-24.1903 0,-4.0317 -0.500076,-8.0946 0,-12.0954 0.197673,-1.5812 1.286523,-2.9581 1.511903,-4.5355 0.285089,-1.9957 -0.488921,-4.092 0,-6.0478 0.546632,-2.1866 2.404639,-3.8804 3.023812,-6.0476 0.415351,-1.4536 -0.213818,-3.039 0,-4.5358 0.293859,-2.0568 1.282435,-3.9822 1.511903,-6.0476 0.27827,-2.5042 -0.450763,-5.0802 0,-7.5594 3.297264,-18.135 1.908979,-1.3237 6.047618,-15.1191 0.880872,-2.9363 0.542505,-6.1632 1.511906,-9.0715 1.069078,-3.2072 3.023809,-6.0475 4.535715,-9.0712 0.503968,-1.0081 1.20232,-1.9405 1.511904,-3.0239 0.705964,-2.471 0.88865,-5.0665 1.511906,-7.5594 6.048909,-24.1959 0.517588,2.9419 4.535715,-21.1667 0.422462,-2.535 1.256204,-5.0027 1.511903,-7.5597 0.250735,-2.5072 -0.27827,-5.0551 0,-7.5594 0.565605,-5.0906 1.877041,-5.9962 3.023809,-10.5833 0.623255,-2.4932 0.609608,-5.1536 1.511906,-7.5597 0.638019,-1.7013 2.524617,-2.7884 3.023809,-4.5357 0.553802,-1.9381 -0.437303,-4.0797 0,-6.0476 0.588738,-2.6493 2.24396,-4.9599 3.023809,-7.5594 0.73841,-2.4615 0.773494,-5.0983 1.511906,-7.5597 0.779849,-2.5993 2.070875,-5.0184 3.023809,-7.5594 1.119161,-2.9845 2.015874,-6.0476 3.023807,-9.0715 0.50397,-1.5119 1.286526,-2.9581 1.511908,-4.5358 0.285086,-1.9955 -0.250039,-4.0473 0,-6.0476 0.379685,-3.0374 2.019634,-7.5707 3.023807,-10.5833 0.50397,-1.5118 1.249905,-2.9636 1.511906,-4.5357 0.248557,-1.4912 -0.248555,-3.0443 0,-4.5355 0.262001,-1.5722 1.007938,-3.024 1.511903,-4.5358 0.50397,-1.5121 0.920025,-3.0562 1.511906,-4.5357 0.418523,-1.0465 1.238591,-1.9307 1.511906,-3.024 1.317326,-5.2691 -2.401615,-1.0369 1.511903,-7.5594 0.73338,-1.2223 2.386335,-1.7489 3.023812,-3.0239 0.45076,-0.9014 -0.374338,-2.0878 0,-3.0236 0.674846,-1.6873 2.211181,-2.9105 3.023809,-4.5358 0.22538,-0.4509 -0.225383,-1.0612 0,-1.5118 0.318738,-0.6377 1.007933,-1.0081 1.511903,-1.5121 2.015874,-2.0159 4.031745,-4.0317 6.047621,-6.0476 1.511905,-1.5118 2.623285,-3.5796 4.535715,-4.5358 1.35229,-0.676 3.12007,0.5311 4.53571,0 24.69407,-9.2601 -8.84421,-0.3704 15.11905,-7.5594 2.46137,-0.7384 5.08865,-0.8059 7.55952,-1.5118 1.08355,-0.3098 1.91879,-1.2909 3.02381,-1.5121 1.48255,-0.2963 3.02381,0 4.53572,0 2.51984,-0.5038 5.05097,-0.9543 7.55952,-1.5118 2.02843,-0.4509 4.07634,-0.8549 6.04762,-1.5118 7.61554,-2.5387 6.36086,-3.3282 13.60714,-4.5358 0.99422,-0.1656 2.026,0.1426 3.02381,0 2.54392,-0.3635 5.00962,-1.1933 7.55953,-1.5118 3.24577,-0.4059 7.37664,0.6413 10.58333,0 1.10502,-0.2212 1.93055,-1.2388 3.02381,-1.5121 0.97784,-0.2445 2.01587,0 3.02381,0 1.5119,0 3.02381,0 4.53571,0 7.05556,0 14.11111,0 21.16667,0 19.65476,0 39.30952,0 58.96429,0 9.57538,0 19.15078,0 28.72619,0 1.00793,0 2.01586,0 3.02381,0 0.50396,0 1.15554,-0.3564 1.51191,0 1.28487,1.2848 1.73892,3.2509 3.02379,4.5357 0.79685,0.797 2.08616,0.8869 3.02382,1.5119 15.43828,10.2922 -0.40127,-0.019 9.07142,7.5596 1.41891,1.1351 3.08206,1.9336 4.53573,3.0237 0.57018,0.4278 0.91887,1.1165 1.51191,1.5121 0.93763,0.6249 2.22694,0.7149 3.02379,1.5118 1.28487,1.2848 1.8887,3.1168 3.02382,4.5358 5.3231,6.6537 0.56107,0.1463 6.0476,4.5357 1.66963,1.3356 3.02382,3.0237 4.53573,4.5358 1.51191,1.5118 3.20003,2.8659 4.53573,4.5355 0.70395,0.88 0.80793,2.1439 1.51188,3.0239 9.90743,12.3843 -0.71647,-2.2283 9.07145,7.5594 1.28487,1.2851 1.88867,3.1168 3.02379,4.5357 5.98469,7.4809 -0.29872,-1.8105 7.55954,6.0476 0.79682,0.7969 0.71504,2.227 1.51188,3.0239 0.79685,0.797 2.08619,0.8869 3.02382,1.5119 1.18605,0.7908 2.01589,2.0158 3.02382,3.0239 1.00793,1.0078 2.01586,2.0159 3.02382,3.0237 0.50395,0.504 1.28651,0.8358 1.51188,1.5121 0.31874,0.9562 -0.31872,2.0674 0,3.0236 0.2254,0.6763 1.19319,0.8745 1.51191,1.5121 0.22539,0.4506 0,1.0078 0,1.5118 0,0.5041 0,1.0078 0,1.5119 0,3.0239 0,6.0475 0,9.0715 0,1.2827 0.25077,8.0682 0,9.0715 -0.75063,3.0022 -3.78508,6.0687 -4.5357,9.0712 0,6.8826 0.71271,0.087 -1.51191,4.5358 -0.43397,0.8681 0.32173,6.2724 0,7.5596 -0.27332,1.0933 -1.15554,1.9548 -1.51191,3.0237 -0.30237,0.907 0,6.3532 0,7.5597 0,5.0395 0,10.0793 0,15.1188 0,1.5994 0.25964,9.8047 0,10.5833 -0.22537,0.6763 -1.19317,0.8745 -1.51191,1.5121 -0.19875,0.3974 0,5.257 0,6.0476 -0.65275,2.5048 -0.4999,5.0355 -0.4999,7.5835 0,0.7128 0.13978,1.4393 0,2.1383 -0.11049,0.5525 -0.42405,1.051 -0.53454,1.6037 -0.19566,0.9782 0.16544,2.2146 0,3.207 -0.12078,0.7247 -0.41376,1.4137 -0.53454,2.1384 -0.0586,0.3513 0,0.7125 0,1.0689 0,0.1783 0.0564,0.3656 0,0.5347 -0.12599,0.3778 -0.40854,0.6911 -0.53454,1.0689 -0.0563,0.1691 0,0.3564 0,0.5345 0,0.7128 0,1.4256 0,2.1383 0,0.3562 0.0864,0.7234 0,1.069 -0.0966,0.3865 -0.43791,0.6826 -0.53453,1.0691 -0.0864,0.3456 0,0.7128 0,1.0692 -0.1782,0.3564 -0.40855,0.6911 -0.53454,1.0689 -0.16973,0.5094 0.17354,2.1522 0,2.6729 -0.17817,0.3561 -0.35637,0.7125 -0.53454,1.0689 0,0.1783 0.0563,0.3656 0,0.5347 -0.25199,0.7559 -0.81711,1.3822 -1.06907,2.1381 -0.0564,0.1691 0.0797,0.3752 0,0.5345 -0.11269,0.2254 -0.42186,0.309 -0.53454,0.5344 -0.0797,0.1596 0,0.3564 0,0.5347 0,0.3564 0.0699,0.7197 0,1.069 -0.11052,0.5527 -0.42405,1.0511 -0.53454,1.6036 -0.0699,0.3495 0.11269,0.731 0,1.0692 -0.0797,0.2389 -0.45487,0.2955 -0.53454,0.5344 -0.16036,0.4813 0.16034,1.1227 0,1.6037 -0.12599,0.3781 -0.43791,0.6826 -0.53456,1.0692 -0.17285,0.6913 0.17288,1.4467 0,2.1381 -0.0966,0.3865 -0.43791,0.6826 -0.53454,1.0691 -0.23201,0.9279 0.23204,2.2792 0,3.207 -0.0611,0.2445 -0.42185,0.3093 -0.53454,0.5348 -0.15936,0.3185 0.15939,0.7503 0,1.0689 -0.11268,0.2254 -0.45484,0.2955 -0.53453,0.5347 -0.11269,0.3379 0.0864,0.7234 0,1.0689 -0.0966,0.3866 -0.40855,0.6911 -0.53454,1.0692 -0.0564,0.1691 0.0797,0.3752 0,0.5345 -0.11269,0.2254 -0.42183,0.3093 -0.53454,0.5344 -0.16555,0.3313 0.15817,1.9802 0,2.1384 -0.71271,0.7125 -0.51292,-1.134 -1.06908,0.5344 0,2.4334 0.25199,0.031 -0.53453,1.6037 -0.15936,0.3188 0.25199,0.817 0,1.0689 -1.06082,1.061 -0.16894,-2.5313 -1.06908,1.0692 -0.0864,0.3458 0.19767,0.7726 0,1.0692 -0.221,0.3315 -0.78735,0.2526 -1.06907,0.5344 -0.126,0.126 0.0797,0.3752 0,0.5345 -0.11269,0.2254 -0.42186,0.3093 -0.53454,0.5347 -0.0797,0.1593 0.0797,0.3752 0,0.5345 -0.11269,0.2254 -0.42185,0.309 -0.53454,0.5344 -0.0797,0.1593 0.0797,0.3752 0,0.5345 -0.11271,0.2254 -0.39476,0.3249 -0.53454,0.5347 -0.221,0.3315 -0.31353,0.7374 -0.53453,1.0689 -0.13978,0.2098 -0.42186,0.3093 -0.53454,0.5347 -0.0797,0.1593 0.0563,0.3654 0,0.5345 -0.126,0.3781 -0.35637,0.7128 -0.53454,1.0692 -0.1782,0.3561 -0.31356,0.7374 -0.53454,1.0689 -0.13978,0.2098 -0.42185,0.3093 -0.53456,0.5347 -0.0797,0.1593 0.0564,0.3654 0,0.5345 -0.12597,0.3778 -0.40854,0.6911 -0.53454,1.0689 -0.11269,0.3381 0.15939,0.7506 0,1.0692 -0.11269,0.2254 -0.39476,0.3249 -0.53454,0.5344 -0.22098,0.3316 -0.31353,0.7377 -0.53453,1.0692 -0.13976,0.2098 -0.42186,0.3093 -0.53454,0.5345 -0.15936,0.3188 0.25199,0.8173 0,1.0692 -0.126,0.1259 -0.40855,-0.126 -0.53454,0 -0.25199,0.2518 0.25199,0.817 0,1.0689 -0.12599,0.1262 -0.40854,-0.126 -0.53454,0 -0.12599,0.1262 0.15936,0.4551 0,0.5347 -0.31874,0.1593 -0.73099,-0.1127 -1.06907,0 -0.23905,0.08 -0.30917,0.4217 -0.53454,0.5345 -0.15936,0.08 -0.37518,-0.08 -0.53454,0 -0.22537,0.1127 -0.30916,0.4217 -0.53454,0.5344 -0.15938,0.08 -0.53453,0.1783 -0.53453,0 0,-0.1781 0.53453,-0.1781 0.53453,0 0,0.1725 -0.92056,0.7723 -1.06907,1.0692 -0.0797,0.1593 0,0.3564 0,0.5345 0,1.2472 0,2.4947 0,3.7417 0,0.5347 0,1.0692 0,1.6036 0,0.1784 0.17817,0.5348 0,0.5348 -0.1782,0 0,-0.7128 0,-0.5348 0,0.5348 0,1.0692 0,1.6039 0,0.1781 0,0.7126 0,0.5345 0,-2.6371 0,0.2849 0,1.0689 0,0.2418 -0.0712,3.0649 0,3.2073 0.11268,0.2254 0.42185,0.3093 0.53454,0.5344 0.15935,0.3189 -0.15939,0.7504 0,1.0692 0.22537,0.4509 0.8437,0.6184 1.06907,1.0692 0.0797,0.1593 -0.0797,0.3752 0,0.5345 0.23688,0.4736 1.27921,1.117 1.60361,1.6036 0.22101,0.3315 0.40855,0.6911 0.53454,1.0689 0.0563,0.1691 -0.12599,0.4088 0,0.5347 0.126,0.126 0.40855,-0.1259 0.53454,0 0.28173,0.2818 0.25281,0.7872 0.53454,1.0692 0.12599,0.1257 0.35636,0 0.53454,0 0.35636,0.3562 0.8437,0.6181 1.06907,1.0689 0.15939,0.3189 -0.25196,0.8171 0,1.0692 0.25199,0.2519 0.77258,-0.1979 1.0691,0 0.3315,0.221 0.25281,0.7874 0.53454,1.0689 0.12597,0.126 0.35634,0 0.53454,0 0.35634,0.3564 0.78951,0.6499 1.06907,1.0692 0.0988,0.1482 -0.12599,0.4085 0,0.5345 0.28173,0.2818 0.69109,0.4085 1.06908,0.5344 0.16904,0.056 0.40854,-0.1259 0.53454,0 0.28172,0.2818 0.25281,0.7874 0.53453,1.0692 0.126,0.126 0.3863,-0.099 0.53454,0 0.41934,0.2797 0.64974,0.7895 1.06908,1.0692 0.82949,0.553 0.34779,-0.908 1.06907,0.5345 0.25199,0.504 0.19648,1.1527 0.53454,1.6036 0.23905,0.3188 0.78735,0.2527 1.06908,0.5345 0.28172,0.2817 0.32956,0.7273 0.53453,1.0691 0.33055,0.5509 0.65781,1.1102 1.06908,1.6037 0.48395,0.5805 1.0691,1.0689 1.60364,1.6036 0.71271,0.7125 1.37959,1.4743 2.13815,2.1381 0.67045,0.5866 1.50818,0.9737 2.13815,1.6037 0.62997,0.6299 0.92721,1.5581 1.60361,2.1381 0.60503,0.5185 1.47516,0.627 2.13815,1.0689 0.629,0.4193 1.06908,1.0692 1.60362,1.6036 0.8909,0.8911 1.78181,1.782 2.67271,2.6728 1.06908,1.0692 2.13815,2.1381 3.20723,3.2073 0.35637,0.3564 0.71273,0.7128 1.06907,1.0689 0.35637,0.3564 0.76671,0.666 1.06908,1.0692 0.23905,0.3188 0.40854,0.6911 0.53454,1.0692 0.0563,0.1688 -0.126,0.4085 0,0.5344 0.28173,0.2818 0.78737,0.2527 1.06907,0.5345 0.126,0.1262 -0.0563,0.3657 0,0.5347 0.30345,0.9102 0.63998,1.8143 1.06908,2.6726 1.2664,2.5328 -0.31292,-3.6116 1.60364,2.1381 0.16904,0.5072 -0.21058,1.1123 0,1.6036 0.35094,0.8189 1.25267,1.3195 1.60361,2.1381 0.21056,0.4916 -0.16904,1.0967 0,1.6039 0.40632,1.2187 1.66095,2.014 2.13815,3.207 0.13235,0.331 -0.11268,0.7311 0,1.0692 0.25199,0.7559 0.71271,1.4253 1.06908,2.1381 0.17817,0.3564 0.32956,0.7276 0.53453,1.0692 0.75301,1.2549 1.11488,1.4507 1.60362,2.6726 0.20928,0.5233 0.18256,1.1636 0.53456,1.6036 0.40132,0.5016 1.14933,0.6149 1.60359,1.0692 0.28175,0.2815 0.29551,0.7501 0.53456,1.0689 0.30237,0.4032 0.76669,0.6659 1.06908,1.0692 0.23905,0.3188 0.28564,0.758 0.53454,1.0689 0.47222,0.5903 1.13138,1.0133 1.60361,1.6036 0.48596,0.6075 1.14255,2.7464 1.60361,3.2073 0.28173,0.2818 0.8641,0.1929 1.06908,0.5347 0.37798,0.63 0.17005,1.5002 0.53454,2.1381 0.37507,0.6562 1.06907,1.0692 1.60361,1.6037 0.1782,0.178 0.42185,0.309 0.53456,0.5344 0.25197,0.5041 0.24464,1.1205 0.53454,1.6037 0.25929,0.432 0.84368,0.6183 1.06905,1.0689 0.15938,0.3188 -0.11269,0.731 0,1.0692 0.0797,0.2391 0.40492,0.3185 0.53456,0.5344 0.35634,0.7128 0.71271,1.4256 1.06908,2.1384 0,0.1781 -0.0797,0.3752 0,0.5344 0.11268,0.2255 0.42185,0.3091 0.53454,0.5345 2.58124,5.1626 -0.68866,-0.9967 0.53453,2.6728 0.0797,0.2389 0.39476,0.3249 0.53454,0.5345 1.55641,2.3347 -0.23691,-0.1762 0.53454,2.1381 0.0797,0.2392 0.39476,0.3249 0.53454,0.5347 0.221,0.3315 0.38658,0.699 0.53453,1.0689 0.20926,0.5231 0.39789,1.057 0.53454,1.6037 0.14476,0.579 -0.20045,2.2718 0,2.6727 0.0797,0.1594 0.45485,-0.1594 0.53454,0 0.31874,0.6375 -0.17285,1.4467 0,2.1382 0.0966,0.3865 0.40854,0.6911 0.53454,1.069 0.11268,0.3381 -0.11269,0.731 0,1.0691 0.12599,0.378 0.40854,0.6911 0.53454,1.0691 0.0564,0.169 -0.0797,0.3752 0,0.5345 0.28731,0.5746 0.78176,1.029 1.06907,1.6036 0.14512,0.2903 -0.1229,1.8309 0,2.1382 0.2386,0.5965 0.78179,1.029 1.0691,1.6036 0.0797,0.1594 -0.0432,0.3617 0,0.5346 0.27329,1.0932 0.84807,2.1022 1.06908,3.2072 0.0699,0.3494 -0.0864,0.7233 0,1.0691 0.0966,0.3865 0.38655,0.6991 0.53454,1.069 0.20925,0.5232 0.32525,1.0805 0.53451,1.6037 0.14798,0.3699 0.40857,0.6911 0.53456,1.069 0.0564,0.1691 -0.0797,0.3752 0,0.5346 0.28731,0.5746 0.83048,1.0071 1.06908,1.6036 0.13234,0.3309 0,0.7127 0,1.0691 0,0.1782 -0.0988,0.3863 0,0.5345 0.27953,0.4193 0.78951,0.6498 1.06907,1.0691 0.13462,0.2019 -0.13462,1.9362 0,2.1382 0.27956,0.4193 0.78952,0.6497 1.06908,1.069 0.0988,0.1483 0,0.3564 0,0.5346 0,0.1781 0,0.3563 0,0.5345 0,0.8909 0,1.7818 0,2.6727 0,0.3564 0,0.7127 0,1.0691 0,0.1782 -0.0988,0.3863 0,0.5345 0.27956,0.4193 0.78954,0.6498 1.06907,1.0691 0.0679,0.1019 0,2.7272 0,3.2072 0,1.0691 0.20966,2.1589 0,3.2073 -0.15626,0.7813 -0.75517,1.4057 -1.06907,2.1381 -0.38209,0.8916 -0.89956,2.8941 -1.06908,3.7418 -0.21256,1.0628 -0.27167,2.1558 -0.53454,3.2072 -0.0966,0.3866 -0.35636,0.7127 -0.53453,1.0691 -0.35637,0.7127 -0.84011,1.3749 -1.06908,2.1382 -0.31144,1.0381 -0.29083,2.1511 -0.53456,3.2072 -0.29168,1.2639 -0.78767,2.4755 -1.06905,3.7418 -0.43217,1.9446 -0.56211,3.9534 -1.06908,5.8799 -0.38745,1.4722 -1.19618,2.8095 -1.60364,4.2763 -0.48633,1.7508 -0.69474,3.5673 -1.06907,5.3454 -2.92651,13.901 0.87164,-4.8928 -2.13815,10.1562 -0.35637,1.7818 -0.60664,3.5882 -1.06908,5.3454 -0.43018,1.6347 -1.17343,3.1762 -1.60361,4.8109 -0.46244,1.7572 -0.6749,3.5716 -1.06908,5.3454 -0.31874,1.4343 -0.69051,2.8566 -1.06907,4.2763 -0.33425,1.2534 -0.81471,2.4698 -1.06908,3.7418 -0.28175,1.4086 -0.25281,2.8676 -0.53456,4.2763 -0.2544,1.272 -0.81468,2.4698 -1.06908,3.7418 -0.28173,1.4086 -0.25281,2.8676 -0.53454,4.2763 -0.25439,1.2719 -0.75445,2.4833 -1.06907,3.7417 -0.39841,1.5937 -0.57909,3.2429 -1.06908,4.8109 -0.40476,1.2952 -1.09963,2.4818 -1.60361,3.7418 -0.56539,1.4134 -1.1222,2.832 -1.60361,4.2763 -0.82042,2.4612 -1.20685,5.0621 -2.13818,7.4835 -0.77904,2.0256 -2.77371,5.1339 -3.74176,6.949 -0.74996,1.4062 -1.33514,2.8997 -2.13815,4.2763 -0.39791,0.6821 -3.46779,4.476 -3.74177,4.8109 -2.55254,3.1198 -5.03798,6.3554 -8.01809,9.0872 -5.98649,5.4876 -1.35779,1.1225 -8.01809,5.8799 -1.13242,0.8089 -2.09394,1.8377 -3.20723,2.6727 -2.34799,1.761 -4.38867,2.8132 -6.94902,4.2763 -1.24724,0.7127 -2.47425,1.4621 -3.74176,2.1381 -1.40621,0.75 -2.83215,1.4643 -4.27633,2.1382 -1.22965,0.5739 -2.56357,0.9304 -3.74176,1.6036 -1.3308,0.7605 -2.40586,1.9213 -3.74177,2.6727 -1.5295,0.8604 -3.20725,1.4255 -4.81086,2.1382 -1.60361,0.7127 -3.1935,1.4571 -4.81084,2.1381 -1.76869,0.7447 -3.59537,1.3507 -5.3454,2.1382 -7.35333,3.309 -3.116,2.2829 -10.69078,4.2763 -4.87294,1.2824 -5.47757,1.0406 -10.69079,2.1382 -1.43777,0.3026 -2.84199,0.7503 -4.2763,1.069 -1.77382,0.3942 -3.57772,0.6482 -5.3454,1.0691 -1.97631,0.4706 -3.90361,1.1331 -5.87992,1.6036 -2.35807,0.5615 -8.97427,1.7289 -11.22531,2.1382 -1.95998,0.3563 -3.93737,0.6276 -5.87994,1.0691 -16.60666,3.7742 2.95984,-0.4362 -10.15625,3.2072 -1.7508,0.4863 -3.57158,0.6749 -5.3454,1.0691 -1.43431,0.3187 -2.83215,0.7983 -4.2763,1.0691 -2.72111,0.5102 -5.31471,0.4897 -8.01808,1.069 -1.26838,0.2718 -2.4734,0.7973 -3.74178,1.0691 -1.23195,0.264 -2.4965,0.343 -3.74177,0.5345 -1.07122,0.1649 -2.12786,0.4365 -3.20723,0.5346 -0.88724,0.081 -1.7818,0 -2.6727,0 -1.06908,0 -2.13816,0 -3.20723,0 -3.38542,0 -6.77083,0 -10.15625,0 -11.22532,0 -22.45064,0 -33.67596,0 -5.34539,0 -10.69078,0 -16.03617,0 -2.31633,0 -4.63267,0 -6.94901,0 -0.89089,0 -1.78545,0.081 -2.67269,0 -1.57513,-0.1432 -4.26385,-0.7753 -5.87993,-1.0691 -1.06634,-0.1939 -2.14446,-0.322 -3.20724,-0.5345 -0.72038,-0.1441 -1.41349,-0.4138 -2.13815,-0.5346 -0.35151,-0.059 -0.71964,0.07 -1.06908,0 -0.55251,-0.1105 -1.04783,-0.4419 -1.60362,-0.5345 -0.52726,-0.088 -1.07635,0.088 -1.60361,0 -0.55579,-0.093 -1.05699,-0.3979 -1.60362,-0.5345 -0.17286,-0.043 -0.3655,0.056 -0.53454,0 -0.37798,-0.126 -0.71272,-0.3564 -1.06908,-0.5346 -0.8909,-0.3563 -1.76241,-0.7656 -2.67269,-1.0691 -1.86291,-0.6209 -1.70472,-0.5345 -3.20724,-0.5345 -0.35636,0 -0.71272,0 -1.06908,0 -0.35636,0 -0.7382,0.1323 -1.06907,0 -0.59649,-0.2386 -1.02901,-0.7818 -1.60362,-1.0691 -0.15937,-0.08 -0.35636,0 -0.53454,0 -0.35636,0 -0.73101,0.1127 -1.06908,0 -0.23905,-0.08 -0.30916,-0.4218 -0.53454,-0.5345 -0.15937,-0.08 -0.37517,0.08 -0.53454,0 -0.22538,-0.1127 -0.30915,-0.4219 -0.53454,-0.5346 -0.21194,-0.1059 -1.49433,0.1093 -1.60361,0 -0.12599,-0.126 0.12599,-0.4085 0,-0.5345 -0.10928,-0.1093 -1.39168,0.106 -1.60362,0 -0.22538,-0.1127 -0.30916,-0.4218 -0.53454,-0.5345 -1.31654,-0.6583 0.48255,1.5516 -1.60362,-0.5346 -0.12599,-0.126 0.15937,-0.4548 0,-0.5345 -0.31873,-0.1594 -0.71271,0 -1.06907,0 -0.53454,0 -1.09651,0.169 -1.60362,0 -0.16904,-0.056 0.12599,-0.4086 0,-0.5346 -0.12599,-0.1259 -0.37517,0.08 -0.53454,0 -0.22538,-0.1126 -0.30916,-0.4218 -0.53454,-0.5345 -0.19331,-0.097 -2.3009,0 -2.67269,0 -1.42544,0 -2.85088,0 -4.27632,0 -0.24073,0 -1.44094,-0.081 -1.60361,0 -0.22539,0.1127 -0.30916,0.4219 -0.53454,0.5345 -0.59187,0.296 -2.82374,-0.591 -2.87726,-0.609 z"
         id="path4987"
         inkscape:connector-curvature="0" /></clipPath><clipPath
       clipPathUnits="userSpaceOnUse"
       id="clipPath5005"><path
         style="fill:none;stroke:#000000;stroke-width:0.26458332px;stroke-linecap:butt;stroke-linejoin:miter;stroke-opacity:1"
         d="m 293.99648,-2259.1657 c -4.2763,0 -196.710371,-35.2796 -204.19392,-54.523 -7.483549,-19.2434 -25.657874,-117.5986 -16.036171,-143.2565 9.6217,-25.6579 70.559151,-186.0196 70.559151,-186.0196 l 184.95051,-133.6349 c 0,0 98.3552,79.112 94.07887,83.3882 -4.2763,4.2762 -52.38482,130.4276 -52.38482,130.4276 l -7.82948,9.6545 0.47247,16.4419 1.51191,4.6302 127.72001,144.6022 z"
         id="path5007"
         inkscape:connector-curvature="0" /></clipPath><clipPath
       clipPathUnits="userSpaceOnUse"
       id="clipPath5009"><path
         style="fill:none;stroke:#000000;stroke-width:0.26458332px;stroke-linecap:butt;stroke-linejoin:miter;stroke-opacity:1"
         d="m 293.99648,-2259.1657 c -4.2763,0 -196.710371,-35.2796 -204.19392,-54.523 -7.483549,-19.2434 -25.657874,-117.5986 -16.036171,-143.2565 9.6217,-25.6579 70.559151,-186.0196 70.559151,-186.0196 l 184.95051,-133.6349 c 0,0 98.3552,79.112 94.07887,83.3882 -4.2763,4.2762 -52.38482,130.4276 -52.38482,130.4276 l -7.82948,9.6545 0.47247,16.4419 1.51191,4.6302 127.72001,144.6022 z"
         id="path5011"
         inkscape:connector-curvature="0" /></clipPath><clipPath
       clipPathUnits="userSpaceOnUse"
       id="clipPath5019"><path
         style="fill:none;stroke:#000000;stroke-width:0.26458332px;stroke-linecap:butt;stroke-linejoin:miter;stroke-opacity:1"
         d="m 467.6161,-2481.7697 -108.32219,-199.5714 c 0,0 -170.22061,-19.6547 -186.46894,-10.5833 -16.24833,9.0714 -52.61363,81.6428 -49.5187,87.6904 3.09493,6.0477 54.0889,79.9889 54.0889,79.9889 l 18.06142,18.285 12.95997,3.5907 2.70805,15.3081 -4.8358,27.9702 -5.61025,9.6349 -9.47749,15.8785 -63.07506,72.8495 c 0,0 71.12424,76.9737 75.50114,78.0427 4.37686,1.0691 111.61036,0 122.55255,-1.069 10.9422,-1.0691 88.63177,-57.7303 99.57396,-67.352 10.94219,-9.6217 47.05145,-74.8354 47.05145,-74.8354 z"
         id="path5021"
         inkscape:connector-curvature="0" /></clipPath><clipPath
       clipPathUnits="userSpaceOnUse"
       id="clipPath5039"><rect
         style="opacity:1;vector-effect:none;fill:none;fill-opacity:1;fill-rule:evenodd;stroke:#ff0000;stroke-width:0.10000002;stroke-linecap:butt;stroke-linejoin:miter;stroke-miterlimit:4;stroke-dasharray:none;stroke-dashoffset:0;stroke-opacity:1"
         id="rect5041"
         width="36.950466"
         height="56.92841"
         x="-683.57538"
         y="-2460.4199"
         rx="0.60720021"
         ry="0.56696504"
         transform="scale(-1,1)" /></clipPath><clipPath
       clipPathUnits="userSpaceOnUse"
       id="clipPath4985-0"><path
         style="fill:none;stroke:#000000;stroke-width:0.26458332px;stroke-linecap:butt;stroke-linejoin:miter;stroke-opacity:1"
         d="m 117.92857,-2433.5 c -1.00794,-2.5198 -2.01587,-5.0396 -3.02381,-7.5595 -1.00794,-0.504 -2.46471,-0.5335 -3.02381,-1.5119 -1.58138,-2.7674 -1.59837,-6.2206 -3.02381,-9.0714 -14.260817,-28.5217 -0.56652,0.6621 -9.071425,-12.0953 -1.250193,-1.8752 -2.015876,-4.0317 -3.023809,-6.0476 -7.173738,-14.3474 -3.38038,-5.8942 -10.583336,-25.7024 -3.190415,-8.7736 -8.192847,-23.078 -12.095239,-31.75 -4.161983,-9.2488 -9.488017,-17.9462 -13.60714,-27.2143 -2.204482,-4.96 -3.980947,-10.0999 -6.047618,-15.119 -4.211434,-10.2277 -5.454785,-11.8286 -9.071431,-22.6786 -1.160221,-3.4806 -1.944825,-7.0766 -3.023809,-10.5833 -1.874723,-6.0928 -4.215847,-12.037 -6.047618,-18.1428 -1.580235,-5.2675 -1.790666,-8.058 -3.023809,-13.6072 -1.447117,-6.512 -3.796363,-13.0005 -4.535715,-19.6548 -0.222615,-2.0034 0,-4.0317 0,-6.0476 0,-2.0158 0,-4.0317 0,-6.0475 0,-6.0476 0,-12.0955 0,-18.1431 0,-8.0634 0,-16.1268 0,-24.1903 0,-4.0317 -0.500076,-8.0946 0,-12.0954 0.197673,-1.5812 1.286523,-2.9581 1.511903,-4.5355 0.285089,-1.9957 -0.488921,-4.092 0,-6.0478 0.546632,-2.1866 2.404639,-3.8804 3.023812,-6.0476 0.415351,-1.4536 -0.213818,-3.039 0,-4.5358 0.293859,-2.0568 1.282435,-3.9822 1.511903,-6.0476 0.27827,-2.5042 -0.450763,-5.0802 0,-7.5594 3.297264,-18.135 1.908979,-1.3237 6.047618,-15.1191 0.880872,-2.9363 0.542505,-6.1632 1.511906,-9.0715 1.069078,-3.2072 3.023809,-6.0475 4.535715,-9.0712 0.503968,-1.0081 1.20232,-1.9405 1.511904,-3.0239 0.705964,-2.471 0.88865,-5.0665 1.511906,-7.5594 6.048909,-24.1959 0.517588,2.9419 4.535715,-21.1667 0.422462,-2.535 1.256204,-5.0027 1.511903,-7.5597 0.250735,-2.5072 -0.27827,-5.0551 0,-7.5594 0.565605,-5.0906 1.877041,-5.9962 3.023809,-10.5833 0.623255,-2.4932 0.609608,-5.1536 1.511906,-7.5597 0.638019,-1.7013 2.524617,-2.7884 3.023809,-4.5357 0.553802,-1.9381 -0.437303,-4.0797 0,-6.0476 0.588738,-2.6493 2.24396,-4.9599 3.023809,-7.5594 0.73841,-2.4615 0.773494,-5.0983 1.511906,-7.5597 0.779849,-2.5993 2.070875,-5.0184 3.023809,-7.5594 1.119161,-2.9845 2.015874,-6.0476 3.023807,-9.0715 0.50397,-1.5119 1.286526,-2.9581 1.511908,-4.5358 0.285086,-1.9955 -0.250039,-4.0473 0,-6.0476 0.379685,-3.0374 2.019634,-7.5707 3.023807,-10.5833 0.50397,-1.5118 1.249905,-2.9636 1.511906,-4.5357 0.248557,-1.4912 -0.248555,-3.0443 0,-4.5355 0.262001,-1.5722 1.007938,-3.024 1.511903,-4.5358 0.50397,-1.5121 0.920025,-3.0562 1.511906,-4.5357 0.418523,-1.0465 1.238591,-1.9307 1.511906,-3.024 1.317326,-5.2691 -2.401615,-1.0369 1.511903,-7.5594 0.73338,-1.2223 2.386335,-1.7489 3.023812,-3.0239 0.45076,-0.9014 -0.374338,-2.0878 0,-3.0236 0.674846,-1.6873 2.211181,-2.9105 3.023809,-4.5358 0.22538,-0.4509 -0.225383,-1.0612 0,-1.5118 0.318738,-0.6377 1.007933,-1.0081 1.511903,-1.5121 2.015874,-2.0159 4.031745,-4.0317 6.047621,-6.0476 1.511905,-1.5118 2.623285,-3.5796 4.535715,-4.5358 1.35229,-0.676 3.12007,0.5311 4.53571,0 24.69407,-9.2601 -8.84421,-0.3704 15.11905,-7.5594 2.46137,-0.7384 5.08865,-0.8059 7.55952,-1.5118 1.08355,-0.3098 1.91879,-1.2909 3.02381,-1.5121 1.48255,-0.2963 3.02381,0 4.53572,0 2.51984,-0.5038 5.05097,-0.9543 7.55952,-1.5118 2.02843,-0.4509 4.07634,-0.8549 6.04762,-1.5118 7.61554,-2.5387 6.36086,-3.3282 13.60714,-4.5358 0.99422,-0.1656 2.026,0.1426 3.02381,0 2.54392,-0.3635 5.00962,-1.1933 7.55953,-1.5118 3.24577,-0.4059 7.37664,0.6413 10.58333,0 1.10502,-0.2212 1.93055,-1.2388 3.02381,-1.5121 0.97784,-0.2445 2.01587,0 3.02381,0 1.5119,0 3.02381,0 4.53571,0 7.05556,0 14.11111,0 21.16667,0 19.65476,0 39.30952,0 58.96429,0 9.57538,0 19.15078,0 28.72619,0 1.00793,0 2.01586,0 3.02381,0 0.50396,0 1.15554,-0.3564 1.51191,0 1.28487,1.2848 1.73892,3.2509 3.02379,4.5357 0.79685,0.797 2.08616,0.8869 3.02382,1.5119 15.43828,10.2922 -0.40127,-0.019 9.07142,7.5596 1.41891,1.1351 3.08206,1.9336 4.53573,3.0237 0.57018,0.4278 0.91887,1.1165 1.51191,1.5121 0.93763,0.6249 2.22694,0.7149 3.02379,1.5118 1.28487,1.2848 1.8887,3.1168 3.02382,4.5358 5.3231,6.6537 0.56107,0.1463 6.0476,4.5357 1.66963,1.3356 3.02382,3.0237 4.53573,4.5358 1.51191,1.5118 3.20003,2.8659 4.53573,4.5355 0.70395,0.88 0.80793,2.1439 1.51188,3.0239 9.90743,12.3843 -0.71647,-2.2283 9.07145,7.5594 1.28487,1.2851 1.88867,3.1168 3.02379,4.5357 5.98469,7.4809 -0.29872,-1.8105 7.55954,6.0476 0.79682,0.7969 0.71504,2.227 1.51188,3.0239 0.79685,0.797 2.08619,0.8869 3.02382,1.5119 1.18605,0.7908 2.01589,2.0158 3.02382,3.0239 1.00793,1.0078 2.01586,2.0159 3.02382,3.0237 0.50395,0.504 1.28651,0.8358 1.51188,1.5121 0.31874,0.9562 -0.31872,2.0674 0,3.0236 0.2254,0.6763 1.19319,0.8745 1.51191,1.5121 0.22539,0.4506 0,1.0078 0,1.5118 0,0.5041 0,1.0078 0,1.5119 0,3.0239 0,6.0475 0,9.0715 0,1.2827 0.25077,8.0682 0,9.0715 -0.75063,3.0022 -3.78508,6.0687 -4.5357,9.0712 0,6.8826 0.71271,0.087 -1.51191,4.5358 -0.43397,0.8681 0.32173,6.2724 0,7.5596 -0.27332,1.0933 -1.15554,1.9548 -1.51191,3.0237 -0.30237,0.907 0,6.3532 0,7.5597 0,5.0395 0,10.0793 0,15.1188 0,1.5994 0.25964,9.8047 0,10.5833 -0.22537,0.6763 -1.19317,0.8745 -1.51191,1.5121 -0.19875,0.3974 0,5.257 0,6.0476 -0.65275,2.5048 -0.4999,5.0355 -0.4999,7.5835 0,0.7128 0.13978,1.4393 0,2.1383 -0.11049,0.5525 -0.42405,1.051 -0.53454,1.6037 -0.19566,0.9782 0.16544,2.2146 0,3.207 -0.12078,0.7247 -0.41376,1.4137 -0.53454,2.1384 -0.0586,0.3513 0,0.7125 0,1.0689 0,0.1783 0.0564,0.3656 0,0.5347 -0.12599,0.3778 -0.40854,0.6911 -0.53454,1.0689 -0.0563,0.1691 0,0.3564 0,0.5345 0,0.7128 0,1.4256 0,2.1383 0,0.3562 0.0864,0.7234 0,1.069 -0.0966,0.3865 -0.43791,0.6826 -0.53453,1.0691 -0.0864,0.3456 0,0.7128 0,1.0692 -0.1782,0.3564 -0.40855,0.6911 -0.53454,1.0689 -0.16973,0.5094 0.17354,2.1522 0,2.6729 -0.17817,0.3561 -0.35637,0.7125 -0.53454,1.0689 0,0.1783 0.0563,0.3656 0,0.5347 -0.25199,0.7559 -0.81711,1.3822 -1.06907,2.1381 -0.0564,0.1691 0.0797,0.3752 0,0.5345 -0.11269,0.2254 -0.42186,0.309 -0.53454,0.5344 -0.0797,0.1596 0,0.3564 0,0.5347 0,0.3564 0.0699,0.7197 0,1.069 -0.11052,0.5527 -0.42405,1.0511 -0.53454,1.6036 -0.0699,0.3495 0.11269,0.731 0,1.0692 -0.0797,0.2389 -0.45487,0.2955 -0.53454,0.5344 -0.16036,0.4813 0.16034,1.1227 0,1.6037 -0.12599,0.3781 -0.43791,0.6826 -0.53456,1.0692 -0.17285,0.6913 0.17288,1.4467 0,2.1381 -0.0966,0.3865 -0.43791,0.6826 -0.53454,1.0691 -0.23201,0.9279 0.23204,2.2792 0,3.207 -0.0611,0.2445 -0.42185,0.3093 -0.53454,0.5348 -0.15936,0.3185 0.15939,0.7503 0,1.0689 -0.11268,0.2254 -0.45484,0.2955 -0.53453,0.5347 -0.11269,0.3379 0.0864,0.7234 0,1.0689 -0.0966,0.3866 -0.40855,0.6911 -0.53454,1.0692 -0.0564,0.1691 0.0797,0.3752 0,0.5345 -0.11269,0.2254 -0.42183,0.3093 -0.53454,0.5344 -0.16555,0.3313 0.15817,1.9802 0,2.1384 -0.71271,0.7125 -0.51292,-1.134 -1.06908,0.5344 0,2.4334 0.25199,0.031 -0.53453,1.6037 -0.15936,0.3188 0.25199,0.817 0,1.0689 -1.06082,1.061 -0.16894,-2.5313 -1.06908,1.0692 -0.0864,0.3458 0.19767,0.7726 0,1.0692 -0.221,0.3315 -0.78735,0.2526 -1.06907,0.5344 -0.126,0.126 0.0797,0.3752 0,0.5345 -0.11269,0.2254 -0.42186,0.3093 -0.53454,0.5347 -0.0797,0.1593 0.0797,0.3752 0,0.5345 -0.11269,0.2254 -0.42185,0.309 -0.53454,0.5344 -0.0797,0.1593 0.0797,0.3752 0,0.5345 -0.11271,0.2254 -0.39476,0.3249 -0.53454,0.5347 -0.221,0.3315 -0.31353,0.7374 -0.53453,1.0689 -0.13978,0.2098 -0.42186,0.3093 -0.53454,0.5347 -0.0797,0.1593 0.0563,0.3654 0,0.5345 -0.126,0.3781 -0.35637,0.7128 -0.53454,1.0692 -0.1782,0.3561 -0.31356,0.7374 -0.53454,1.0689 -0.13978,0.2098 -0.42185,0.3093 -0.53456,0.5347 -0.0797,0.1593 0.0564,0.3654 0,0.5345 -0.12597,0.3778 -0.40854,0.6911 -0.53454,1.0689 -0.11269,0.3381 0.15939,0.7506 0,1.0692 -0.11269,0.2254 -0.39476,0.3249 -0.53454,0.5344 -0.22098,0.3316 -0.31353,0.7377 -0.53453,1.0692 -0.13976,0.2098 -0.42186,0.3093 -0.53454,0.5345 -0.15936,0.3188 0.25199,0.8173 0,1.0692 -0.126,0.1259 -0.40855,-0.126 -0.53454,0 -0.25199,0.2518 0.25199,0.817 0,1.0689 -0.12599,0.1262 -0.40854,-0.126 -0.53454,0 -0.12599,0.1262 0.15936,0.4551 0,0.5347 -0.31874,0.1593 -0.73099,-0.1127 -1.06907,0 -0.23905,0.08 -0.30917,0.4217 -0.53454,0.5345 -0.15936,0.08 -0.37518,-0.08 -0.53454,0 -0.22537,0.1127 -0.30916,0.4217 -0.53454,0.5344 -0.15938,0.08 -0.53453,0.1783 -0.53453,0 0,-0.1781 0.53453,-0.1781 0.53453,0 0,0.1725 -0.92056,0.7723 -1.06907,1.0692 -0.0797,0.1593 0,0.3564 0,0.5345 0,1.2472 0,2.4947 0,3.7417 0,0.5347 0,1.0692 0,1.6036 0,0.1784 0.17817,0.5348 0,0.5348 -0.1782,0 0,-0.7128 0,-0.5348 0,0.5348 0,1.0692 0,1.6039 0,0.1781 0,0.7126 0,0.5345 0,-2.6371 0,0.2849 0,1.0689 0,0.2418 -0.0712,3.0649 0,3.2073 0.11268,0.2254 0.42185,0.3093 0.53454,0.5344 0.15935,0.3189 -0.15939,0.7504 0,1.0692 0.22537,0.4509 0.8437,0.6184 1.06907,1.0692 0.0797,0.1593 -0.0797,0.3752 0,0.5345 0.23688,0.4736 1.27921,1.117 1.60361,1.6036 0.22101,0.3315 0.40855,0.6911 0.53454,1.0689 0.0563,0.1691 -0.12599,0.4088 0,0.5347 0.126,0.126 0.40855,-0.1259 0.53454,0 0.28173,0.2818 0.25281,0.7872 0.53454,1.0692 0.12599,0.1257 0.35636,0 0.53454,0 0.35636,0.3562 0.8437,0.6181 1.06907,1.0689 0.15939,0.3189 -0.25196,0.8171 0,1.0692 0.25199,0.2519 0.77258,-0.1979 1.0691,0 0.3315,0.221 0.25281,0.7874 0.53454,1.0689 0.12597,0.126 0.35634,0 0.53454,0 0.35634,0.3564 0.78951,0.6499 1.06907,1.0692 0.0988,0.1482 -0.12599,0.4085 0,0.5345 0.28173,0.2818 0.69109,0.4085 1.06908,0.5344 0.16904,0.056 0.40854,-0.1259 0.53454,0 0.28172,0.2818 0.25281,0.7874 0.53453,1.0692 0.126,0.126 0.3863,-0.099 0.53454,0 0.41934,0.2797 0.64974,0.7895 1.06908,1.0692 0.82949,0.553 0.34779,-0.908 1.06907,0.5345 0.25199,0.504 0.19648,1.1527 0.53454,1.6036 0.23905,0.3188 0.78735,0.2527 1.06908,0.5345 0.28172,0.2817 0.32956,0.7273 0.53453,1.0691 0.33055,0.5509 0.65781,1.1102 1.06908,1.6037 0.48395,0.5805 1.0691,1.0689 1.60364,1.6036 0.71271,0.7125 1.37959,1.4743 2.13815,2.1381 0.67045,0.5866 1.50818,0.9737 2.13815,1.6037 0.62997,0.6299 0.92721,1.5581 1.60361,2.1381 0.60503,0.5185 1.47516,0.627 2.13815,1.0689 0.629,0.4193 1.06908,1.0692 1.60362,1.6036 0.8909,0.8911 1.78181,1.782 2.67271,2.6728 1.06908,1.0692 2.13815,2.1381 3.20723,3.2073 0.35637,0.3564 0.71273,0.7128 1.06907,1.0689 0.35637,0.3564 0.76671,0.666 1.06908,1.0692 0.23905,0.3188 0.40854,0.6911 0.53454,1.0692 0.0563,0.1688 -0.126,0.4085 0,0.5344 0.28173,0.2818 0.78737,0.2527 1.06907,0.5345 0.126,0.1262 -0.0563,0.3657 0,0.5347 0.30345,0.9102 0.63998,1.8143 1.06908,2.6726 1.2664,2.5328 -0.31292,-3.6116 1.60364,2.1381 0.16904,0.5072 -0.21058,1.1123 0,1.6036 0.35094,0.8189 1.25267,1.3195 1.60361,2.1381 0.21056,0.4916 -0.16904,1.0967 0,1.6039 0.40632,1.2187 1.66095,2.014 2.13815,3.207 0.13235,0.331 -0.11268,0.7311 0,1.0692 0.25199,0.7559 0.71271,1.4253 1.06908,2.1381 0.17817,0.3564 0.32956,0.7276 0.53453,1.0692 0.75301,1.2549 1.11488,1.4507 1.60362,2.6726 0.20928,0.5233 0.18256,1.1636 0.53456,1.6036 0.40132,0.5016 1.14933,0.6149 1.60359,1.0692 0.28175,0.2815 0.29551,0.7501 0.53456,1.0689 0.30237,0.4032 0.76669,0.6659 1.06908,1.0692 0.23905,0.3188 0.28564,0.758 0.53454,1.0689 0.47222,0.5903 1.13138,1.0133 1.60361,1.6036 0.48596,0.6075 1.14255,2.7464 1.60361,3.2073 0.28173,0.2818 0.8641,0.1929 1.06908,0.5347 0.37798,0.63 0.17005,1.5002 0.53454,2.1381 0.37507,0.6562 1.06907,1.0692 1.60361,1.6037 0.1782,0.178 0.42185,0.309 0.53456,0.5344 0.25197,0.5041 0.24464,1.1205 0.53454,1.6037 0.25929,0.432 0.84368,0.6183 1.06905,1.0689 0.15938,0.3188 -0.11269,0.731 0,1.0692 0.0797,0.2391 0.40492,0.3185 0.53456,0.5344 0.35634,0.7128 0.71271,1.4256 1.06908,2.1384 0,0.1781 -0.0797,0.3752 0,0.5344 0.11268,0.2255 0.42185,0.3091 0.53454,0.5345 2.58124,5.1626 -0.68866,-0.9967 0.53453,2.6728 0.0797,0.2389 0.39476,0.3249 0.53454,0.5345 1.55641,2.3347 -0.23691,-0.1762 0.53454,2.1381 0.0797,0.2392 0.39476,0.3249 0.53454,0.5347 0.221,0.3315 0.38658,0.699 0.53453,1.0689 0.20926,0.5231 0.39789,1.057 0.53454,1.6037 0.14476,0.579 -0.20045,2.2718 0,2.6727 0.0797,0.1594 0.45485,-0.1594 0.53454,0 0.31874,0.6375 -0.17285,1.4467 0,2.1382 0.0966,0.3865 0.40854,0.6911 0.53454,1.069 0.11268,0.3381 -0.11269,0.731 0,1.0691 0.12599,0.378 0.40854,0.6911 0.53454,1.0691 0.0564,0.169 -0.0797,0.3752 0,0.5345 0.28731,0.5746 0.78176,1.029 1.06907,1.6036 0.14512,0.2903 -0.1229,1.8309 0,2.1382 0.2386,0.5965 0.78179,1.029 1.0691,1.6036 0.0797,0.1594 -0.0432,0.3617 0,0.5346 0.27329,1.0932 0.84807,2.1022 1.06908,3.2072 0.0699,0.3494 -0.0864,0.7233 0,1.0691 0.0966,0.3865 0.38655,0.6991 0.53454,1.069 0.20925,0.5232 0.32525,1.0805 0.53451,1.6037 0.14798,0.3699 0.40857,0.6911 0.53456,1.069 0.0564,0.1691 -0.0797,0.3752 0,0.5346 0.28731,0.5746 0.83048,1.0071 1.06908,1.6036 0.13234,0.3309 0,0.7127 0,1.0691 0,0.1782 -0.0988,0.3863 0,0.5345 0.27953,0.4193 0.78951,0.6498 1.06907,1.0691 0.13462,0.2019 -0.13462,1.9362 0,2.1382 0.27956,0.4193 0.78952,0.6497 1.06908,1.069 0.0988,0.1483 0,0.3564 0,0.5346 0,0.1781 0,0.3563 0,0.5345 0,0.8909 0,1.7818 0,2.6727 0,0.3564 0,0.7127 0,1.0691 0,0.1782 -0.0988,0.3863 0,0.5345 0.27956,0.4193 0.78954,0.6498 1.06907,1.0691 0.0679,0.1019 0,2.7272 0,3.2072 0,1.0691 0.20966,2.1589 0,3.2073 -0.15626,0.7813 -0.75517,1.4057 -1.06907,2.1381 -0.38209,0.8916 -0.89956,2.8941 -1.06908,3.7418 -0.21256,1.0628 -0.27167,2.1558 -0.53454,3.2072 -0.0966,0.3866 -0.35636,0.7127 -0.53453,1.0691 -0.35637,0.7127 -0.84011,1.3749 -1.06908,2.1382 -0.31144,1.0381 -0.29083,2.1511 -0.53456,3.2072 -0.29168,1.2639 -0.78767,2.4755 -1.06905,3.7418 -0.43217,1.9446 -0.56211,3.9534 -1.06908,5.8799 -0.38745,1.4722 -1.19618,2.8095 -1.60364,4.2763 -0.48633,1.7508 -0.69474,3.5673 -1.06907,5.3454 -2.92651,13.901 0.87164,-4.8928 -2.13815,10.1562 -0.35637,1.7818 -0.60664,3.5882 -1.06908,5.3454 -0.43018,1.6347 -1.17343,3.1762 -1.60361,4.8109 -0.46244,1.7572 -0.6749,3.5716 -1.06908,5.3454 -0.31874,1.4343 -0.69051,2.8566 -1.06907,4.2763 -0.33425,1.2534 -0.81471,2.4698 -1.06908,3.7418 -0.28175,1.4086 -0.25281,2.8676 -0.53456,4.2763 -0.2544,1.272 -0.81468,2.4698 -1.06908,3.7418 -0.28173,1.4086 -0.25281,2.8676 -0.53454,4.2763 -0.25439,1.2719 -0.75445,2.4833 -1.06907,3.7417 -0.39841,1.5937 -0.57909,3.2429 -1.06908,4.8109 -0.40476,1.2952 -1.09963,2.4818 -1.60361,3.7418 -0.56539,1.4134 -1.1222,2.832 -1.60361,4.2763 -0.82042,2.4612 -1.20685,5.0621 -2.13818,7.4835 -0.77904,2.0256 -2.77371,5.1339 -3.74176,6.949 -0.74996,1.4062 -1.33514,2.8997 -2.13815,4.2763 -0.39791,0.6821 -3.46779,4.476 -3.74177,4.8109 -2.55254,3.1198 -5.03798,6.3554 -8.01809,9.0872 -5.98649,5.4876 -1.35779,1.1225 -8.01809,5.8799 -1.13242,0.8089 -2.09394,1.8377 -3.20723,2.6727 -2.34799,1.761 -4.38867,2.8132 -6.94902,4.2763 -1.24724,0.7127 -2.47425,1.4621 -3.74176,2.1381 -1.40621,0.75 -2.83215,1.4643 -4.27633,2.1382 -1.22965,0.5739 -2.56357,0.9304 -3.74176,1.6036 -1.3308,0.7605 -2.40586,1.9213 -3.74177,2.6727 -1.5295,0.8604 -3.20725,1.4255 -4.81086,2.1382 -1.60361,0.7127 -3.1935,1.4571 -4.81084,2.1381 -1.76869,0.7447 -3.59537,1.3507 -5.3454,2.1382 -7.35333,3.309 -3.116,2.2829 -10.69078,4.2763 -4.87294,1.2824 -5.47757,1.0406 -10.69079,2.1382 -1.43777,0.3026 -2.84199,0.7503 -4.2763,1.069 -1.77382,0.3942 -3.57772,0.6482 -5.3454,1.0691 -1.97631,0.4706 -3.90361,1.1331 -5.87992,1.6036 -2.35807,0.5615 -8.97427,1.7289 -11.22531,2.1382 -1.95998,0.3563 -3.93737,0.6276 -5.87994,1.0691 -16.60666,3.7742 2.95984,-0.4362 -10.15625,3.2072 -1.7508,0.4863 -3.57158,0.6749 -5.3454,1.0691 -1.43431,0.3187 -2.83215,0.7983 -4.2763,1.0691 -2.72111,0.5102 -5.31471,0.4897 -8.01808,1.069 -1.26838,0.2718 -2.4734,0.7973 -3.74178,1.0691 -1.23195,0.264 -2.4965,0.343 -3.74177,0.5345 -1.07122,0.1649 -2.12786,0.4365 -3.20723,0.5346 -0.88724,0.081 -1.7818,0 -2.6727,0 -1.06908,0 -2.13816,0 -3.20723,0 -3.38542,0 -6.77083,0 -10.15625,0 -11.22532,0 -22.45064,0 -33.67596,0 -5.34539,0 -10.69078,0 -16.03617,0 -2.31633,0 -4.63267,0 -6.94901,0 -0.89089,0 -1.78545,0.081 -2.67269,0 -1.57513,-0.1432 -4.26385,-0.7753 -5.87993,-1.0691 -1.06634,-0.1939 -2.14446,-0.322 -3.20724,-0.5345 -0.72038,-0.1441 -1.41349,-0.4138 -2.13815,-0.5346 -0.35151,-0.059 -0.71964,0.07 -1.06908,0 -0.55251,-0.1105 -1.04783,-0.4419 -1.60362,-0.5345 -0.52726,-0.088 -1.07635,0.088 -1.60361,0 -0.55579,-0.093 -1.05699,-0.3979 -1.60362,-0.5345 -0.17286,-0.043 -0.3655,0.056 -0.53454,0 -0.37798,-0.126 -0.71272,-0.3564 -1.06908,-0.5346 -0.8909,-0.3563 -1.76241,-0.7656 -2.67269,-1.0691 -1.86291,-0.6209 -1.70472,-0.5345 -3.20724,-0.5345 -0.35636,0 -0.71272,0 -1.06908,0 -0.35636,0 -0.7382,0.1323 -1.06907,0 -0.59649,-0.2386 -1.02901,-0.7818 -1.60362,-1.0691 -0.15937,-0.08 -0.35636,0 -0.53454,0 -0.35636,0 -0.73101,0.1127 -1.06908,0 -0.23905,-0.08 -0.30916,-0.4218 -0.53454,-0.5345 -0.15937,-0.08 -0.37517,0.08 -0.53454,0 -0.22538,-0.1127 -0.30915,-0.4219 -0.53454,-0.5346 -0.21194,-0.1059 -1.49433,0.1093 -1.60361,0 -0.12599,-0.126 0.12599,-0.4085 0,-0.5345 -0.10928,-0.1093 -1.39168,0.106 -1.60362,0 -0.22538,-0.1127 -0.30916,-0.4218 -0.53454,-0.5345 -1.31654,-0.6583 0.48255,1.5516 -1.60362,-0.5346 -0.12599,-0.126 0.15937,-0.4548 0,-0.5345 -0.31873,-0.1594 -0.71271,0 -1.06907,0 -0.53454,0 -1.09651,0.169 -1.60362,0 -0.16904,-0.056 0.12599,-0.4086 0,-0.5346 -0.12599,-0.1259 -0.37517,0.08 -0.53454,0 -0.22538,-0.1126 -0.30916,-0.4218 -0.53454,-0.5345 -0.19331,-0.097 -2.3009,0 -2.67269,0 -1.42544,0 -2.85088,0 -4.27632,0 -0.24073,0 -1.44094,-0.081 -1.60361,0 -0.22539,0.1127 -0.30916,0.4219 -0.53454,0.5345 -0.59187,0.296 -2.82374,-0.591 -2.87726,-0.609 z"
         id="path4987-2"
         inkscape:connector-curvature="0" /></clipPath><clipPath
       clipPathUnits="userSpaceOnUse"
       id="clipPath5005-2"><path
         style="fill:none;stroke:#000000;stroke-width:0.26458332px;stroke-linecap:butt;stroke-linejoin:miter;stroke-opacity:1"
         d="m 293.99648,-2259.1657 c -4.2763,0 -196.710371,-35.2796 -204.19392,-54.523 -7.483549,-19.2434 -25.657874,-117.5986 -16.036171,-143.2565 9.6217,-25.6579 70.559151,-186.0196 70.559151,-186.0196 l 184.95051,-133.6349 c 0,0 98.3552,79.112 94.07887,83.3882 -4.2763,4.2762 -52.38482,130.4276 -52.38482,130.4276 l -7.82948,9.6545 0.47247,16.4419 1.51191,4.6302 127.72001,144.6022 z"
         id="path5007-3"
         inkscape:connector-curvature="0" /></clipPath><clipPath
       clipPathUnits="userSpaceOnUse"
       id="clipPath5009-7"><path
         style="fill:none;stroke:#000000;stroke-width:0.26458332px;stroke-linecap:butt;stroke-linejoin:miter;stroke-opacity:1"
         d="m 293.99648,-2259.1657 c -4.2763,0 -196.710371,-35.2796 -204.19392,-54.523 -7.483549,-19.2434 -25.657874,-117.5986 -16.036171,-143.2565 9.6217,-25.6579 70.559151,-186.0196 70.559151,-186.0196 l 184.95051,-133.6349 c 0,0 98.3552,79.112 94.07887,83.3882 -4.2763,4.2762 -52.38482,130.4276 -52.38482,130.4276 l -7.82948,9.6545 0.47247,16.4419 1.51191,4.6302 127.72001,144.6022 z"
         id="path5011-9"
         inkscape:connector-curvature="0" /></clipPath><clipPath
       clipPathUnits="userSpaceOnUse"
       id="clipPath5019-1"><path
         style="fill:none;stroke:#000000;stroke-width:0.26458332px;stroke-linecap:butt;stroke-linejoin:miter;stroke-opacity:1"
         d="m 467.6161,-2481.7697 -108.32219,-199.5714 c 0,0 -170.22061,-19.6547 -186.46894,-10.5833 -16.24833,9.0714 -52.61363,81.6428 -49.5187,87.6904 3.09493,6.0477 54.0889,79.9889 54.0889,79.9889 l 18.06142,18.285 12.95997,3.5907 2.70805,15.3081 -4.8358,27.9702 -5.61025,9.6349 -9.47749,15.8785 -63.07506,72.8495 c 0,0 71.12424,76.9737 75.50114,78.0427 4.37686,1.0691 111.61036,0 122.55255,-1.069 10.9422,-1.0691 88.63177,-57.7303 99.57396,-67.352 10.94219,-9.6217 47.05145,-74.8354 47.05145,-74.8354 z"
         id="path5021-1"
         inkscape:connector-curvature="0" /></clipPath><clipPath
       clipPathUnits="userSpaceOnUse"
       id="clipPath5039-1"><rect
         style="opacity:1;vector-effect:none;fill:none;fill-opacity:1;fill-rule:evenodd;stroke:#ff0000;stroke-width:0.10000002;stroke-linecap:butt;stroke-linejoin:miter;stroke-miterlimit:4;stroke-dasharray:none;stroke-dashoffset:0;stroke-opacity:1"
         id="rect5041-7"
         width="36.950466"
         height="56.92841"
         x="-683.57538"
         y="-2460.4199"
         rx="0.60720021"
         ry="0.56696504"
         transform="scale(-1,1)" /></clipPath><clipPath
       id="clipPath5039-3"
       clipPathUnits="userSpaceOnUse"><rect
         transform="scale(-1,1)"
         ry="0.56696504"
         rx="0.60720021"
         y="-2460.4199"
         x="-683.57538"
         height="56.92841"
         width="36.950466"
         id="rect5041-72"
         style="opacity:1;vector-effect:none;fill:none;fill-opacity:1;fill-rule:evenodd;stroke:#ff0000;stroke-width:0.10000002;stroke-linecap:butt;stroke-linejoin:miter;stroke-miterlimit:4;stroke-dasharray:none;stroke-dashoffset:0;stroke-opacity:1" /></clipPath><clipPath
       clipPathUnits="userSpaceOnUse"
       id="clipPath5148-8"><rect
         style="opacity:1;vector-effect:none;fill:none;fill-opacity:1;fill-rule:evenodd;stroke:#ff0000;stroke-width:0.37795275;stroke-linecap:butt;stroke-linejoin:miter;stroke-miterlimit:4;stroke-dasharray:none;stroke-dashoffset:0;stroke-opacity:1"
         id="rect5150-4"
         width="376.31473"
         height="377.44141"
         x="0"
         y="-0.27671829"
         rx="2.29493"
         ry="1.85542"
         transform="scale(-1)" /></clipPath></defs><sodipodi:namedview
     pagecolor="#ffffff"
     bordercolor="#666666"
     borderopacity="1"
     objecttolerance="10"
     gridtolerance="10"
     guidetolerance="10"
     inkscape:pageopacity="0"
     inkscape:pageshadow="2"
     inkscape:window-width="1366"
     inkscape:window-height="705"
     id="namedview55"
     showgrid="false"
     inkscape:zoom="0.6823248"
     inkscape:cx="102.95038"
     inkscape:cy="190.88331"
     inkscape:window-x="-8"
     inkscape:window-y="-8"
     inkscape:window-maximized="1"
     inkscape:current-layer="Layer_1" /><g
     id="g4668"
     transform="matrix(1.5819857,0,0,1.5820105,-46.538077,-221.05139)"
     style="stroke-width:0.63211197"
     inkscape:export-filename="C:\Users\Pablo\Documents\GitHub\umaLink\bZoom.png"
     inkscape:export-xdpi="11.3131"
     inkscape:export-ydpi="11.3131"><circle
       clip-path="url(#clipPath4644)"
       inkscape:export-filename="C:\Users\Pablo\Documents\GitHub\HEATMAP\bZoom.png"
       inkscape:export-ydpi="11.3131"
       inkscape:export-xdpi="11.3131"
       style="fill:#fcbc1d;stroke-width:0.63211197"
       cx="183.92998"
       cy="294.95395"
       r="153.10417"
       id="circle12" /><g
       clip-path="url(#clipPath4640)"
       inkscape:export-ydpi="11.3131"
       inkscape:export-xdpi="11.3131"
       inkscape:export-filename="C:\Users\Pablo\Documents\GitHub\HEATMAP\bZoom.png"
       transform="matrix(1.2547336,0,0,1.090679,-450.56949,-303.37577)"
       style="fill:#ffffff;stroke-width:0.5403434;filter:url(#filter4583)"
       id="g4581"><polygon
         style="fill:#ffffff;stroke-width:1.28258193"
         points="251.204,154.849 183.216,222.837 53.806,201.025 121.794,133.038 "
         id="polygon4552-6"
         transform="matrix(0.42129345,0,0,0.42129345,384.35951,437.43254)"
         inkscape:export-xdpi="11.3131"
         inkscape:export-ydpi="11.3131"
         inkscape:export-filename="C:\Users\Pablo\Documents\GitHub\HEATMAP\bZoom.png" /><polygon
         style="fill:#ffffff;stroke-width:1.28258193"
         points="357.151,260.798 289.163,328.785 310.975,458.195 378.963,390.207 "
         id="polygon4554-7"
         transform="matrix(0.42129345,0,0,0.42129345,397.32571,447.31155)"
         inkscape:export-xdpi="11.3131"
         inkscape:export-ydpi="11.3131"
         inkscape:export-filename="C:\Users\Pablo\Documents\GitHub\HEATMAP\bZoom.png" /><path
         inkscape:connector-curvature="0"
         style="fill:#ffffff;stroke-width:0.54034334"
         d="m 471.99126,578.47303 c -22.11791,-22.11791 -49.92201,18.34438 -49.92201,18.34438 l 10.36256,-3.17319 -22.61967,26.66788 14.89314,-4.00313 -24.83145,34.28107 34.28106,-24.83104 -4.00313,14.89273 26.66746,-22.61967 -3.17319,10.36255 c 4.3e-4,4.3e-4 40.46314,-27.80368 18.34523,-49.92158 z"
         id="path4548-5"
         inkscape:export-xdpi="11.3131"
         inkscape:export-ydpi="11.3131"
         inkscape:export-filename="C:\Users\Pablo\Documents\GitHub\HEATMAP\bZoom.png" /><path
         inkscape:connector-curvature="0"
         style="fill:#ffffff;stroke-width:0.54034334"
         d="m 471.99126,578.47303 -72.11743,72.11701 34.28106,-24.83104 -4.00313,14.89273 26.66746,-22.61967 -3.17319,10.36255 c 4.3e-4,4.3e-4 40.46314,-27.80368 18.34523,-49.92158 z"
         id="path4550-1"
         inkscape:export-xdpi="11.3131"
         inkscape:export-ydpi="11.3131"
         inkscape:export-filename="C:\Users\Pablo\Documents\GitHub\HEATMAP\bZoom.png" /><polygon
         id="polygon2-5"
         points="85.924,272.426 48.7,329.482 159.674,440.457 216.73,403.232 "
         style="fill:#ffffff;stroke-width:1.28258193"
         transform="matrix(0.42129345,0,0,0.42129345,413.04157,428.72661)"
         inkscape:export-xdpi="11.3131"
         inkscape:export-ydpi="11.3131"
         inkscape:export-filename="C:\Users\Pablo\Documents\GitHub\HEATMAP\bZoom.png" /><path
         inkscape:connector-curvature="0"
         id="path14-7"
         d="m 609.28996,446.08367 -1.34645,-3.56289 -29.56933,29.56933 c 8.22787,8.22786 8.22491,21.56517 0,29.79008 -8.22786,8.22786 -21.5618,8.22786 -29.79008,0 l -76.59284,76.59284 34.91386,34.91385 84.57045,-84.57087 c 21.63342,-21.633 28.6252,-54.10714 17.81439,-82.73234 z"
         style="fill:#ffffff;fill-opacity:1;stroke-width:0.54034334"
         inkscape:export-xdpi="11.3131"
         inkscape:export-ydpi="11.3131"
         inkscape:export-filename="C:\Users\Pablo\Documents\GitHub\HEATMAP\bZoom.png" /><path
         inkscape:connector-curvature="0"
         id="path16-2"
         d="m 578.37418,501.88019 c 8.22491,-8.22491 8.22787,-21.56179 0,-29.79008 l -29.79008,29.79008 c 8.22786,8.22786 21.56222,8.22786 29.79008,0 z"
         style="fill:#ffffff;stroke-width:0.54034334"
         inkscape:export-xdpi="11.3131"
         inkscape:export-ydpi="11.3131"
         inkscape:export-filename="C:\Users\Pablo\Documents\GitHub\HEATMAP\bZoom.png" /><path
         inkscape:connector-curvature="0"
         id="path18-1"
         d="m 548.5841,501.88019 c -8.22491,-8.22491 -8.22786,-21.56179 0,-29.79008 8.22491,-8.22491 21.56517,-8.22491 29.79008,0 l 29.56933,-29.56933 -3.55993,-1.3435 c -8.83242,-3.33959 -18.11815,-5.02856 -27.59136,-5.02856 -20.82916,0 -40.41299,8.10864 -55.14098,22.83706 l -84.57384,84.57339 34.91386,34.91386 z"
         style="fill:#ffffff;fill-opacity:1;stroke-width:0.54034334"
         inkscape:export-xdpi="11.3131"
         inkscape:export-ydpi="11.3131"
         inkscape:export-filename="C:\Users\Pablo\Documents\GitHub\HEATMAP\bZoom.png" /><path
         inkscape:connector-curvature="0"
         id="path20-8"
         d="m 548.5841,472.09011 c -8.22786,8.22786 -8.22491,21.56517 0,29.79008 l 29.79008,-29.79008 c -8.22491,-8.22491 -21.56517,-8.22491 -29.79008,0 z"
         style="fill:#ffffff;stroke-width:0.54034334"
         inkscape:export-xdpi="11.3131"
         inkscape:export-ydpi="11.3131"
         inkscape:export-filename="C:\Users\Pablo\Documents\GitHub\HEATMAP\bZoom.png" /></g><polygon
       clip-path="url(#clipPath4636)"
       inkscape:export-filename="C:\Users\Pablo\Documents\GitHub\HEATMAP\bZoom.png"
       inkscape:export-ydpi="11.3131"
       inkscape:export-xdpi="11.3131"
       transform="matrix(0.42129345,0,0,0.42129345,62.264527,188.33772)"
       id="polygon4552"
       points="251.204,154.849 183.216,222.837 53.806,201.025 121.794,133.038 "
       style="fill:#ff0000;stroke-width:1.50040781" /><polygon
       clip-path="url(#clipPath4632)"
       inkscape:export-filename="C:\Users\Pablo\Documents\GitHub\HEATMAP\bZoom.png"
       inkscape:export-ydpi="11.3131"
       inkscape:export-xdpi="11.3131"
       transform="matrix(0.42129345,0,0,0.42129345,75.230731,198.21673)"
       id="polygon4554"
       points="357.151,260.798 289.163,328.785 310.975,458.195 378.963,390.207 "
       style="fill:#ff0000;stroke-width:1.50040781" /><path
       clip-path="url(#clipPath4628)"
       inkscape:export-filename="C:\Users\Pablo\Documents\GitHub\HEATMAP\bZoom.png"
       inkscape:export-ydpi="11.3131"
       inkscape:export-xdpi="11.3131"
       id="path4548"
       d="M 149.89628,329.37821 C 127.77837,307.2603 99.974267,347.72259 99.974267,347.72259 l 10.362563,-3.17319 -22.619676,26.66788 14.893146,-4.00313 -24.831458,34.28107 34.281068,-24.83104 -4.00313,14.89273 26.66746,-22.61967 -3.17319,10.36255 c 4.3e-4,4.3e-4 40.46314,-27.80368 18.34523,-49.92158 z"
       style="fill:#ffeeaa;stroke-width:0.63211197"
       inkscape:connector-curvature="0" /><path
       clip-path="url(#clipPath4624)"
       inkscape:export-filename="C:\Users\Pablo\Documents\GitHub\HEATMAP\bZoom.png"
       inkscape:export-ydpi="11.3131"
       inkscape:export-xdpi="11.3131"
       id="path4550"
       d="m 149.89628,329.37821 -72.117438,72.11701 34.281068,-24.83104 -4.00313,14.89273 26.66746,-22.61967 -3.17319,10.36255 c 4.3e-4,4.3e-4 40.46314,-27.80368 18.34523,-49.92158 z"
       style="fill:#ffff00;stroke-width:0.63211197"
       inkscape:connector-curvature="0" /><polygon
       clip-path="url(#clipPath4620)"
       inkscape:export-filename="C:\Users\Pablo\Documents\GitHub\HEATMAP\bZoom.png"
       inkscape:export-ydpi="11.3131"
       inkscape:export-xdpi="11.3131"
       transform="matrix(0.42129345,0,0,0.42129345,90.946589,179.63179)"
       style="fill:#c4c8f5;stroke-width:1.50040781"
       points="85.924,272.426 48.7,329.482 159.674,440.457 216.73,403.232 "
       id="polygon2" /><path
       clip-path="url(#clipPath4616)"
       inkscape:export-filename="C:\Users\Pablo\Documents\GitHub\HEATMAP\bZoom.png"
       inkscape:export-ydpi="11.3131"
       inkscape:export-xdpi="11.3131"
       style="fill:#00346b;fill-opacity:1;stroke-width:0.63211197"
       d="m 287.19497,196.98885 -1.34645,-3.56289 -29.56933,29.56933 c 8.22787,8.22786 8.22491,21.56517 0,29.79008 -8.22786,8.22786 -21.5618,8.22786 -29.79008,0 l -76.59283,76.59284 34.91385,34.91385 84.57045,-84.57087 c 21.63342,-21.633 28.6252,-54.10714 17.81439,-82.73234 z"
       id="path14"
       inkscape:connector-curvature="0" /><path
       clip-path="url(#clipPath4612)"
       inkscape:export-filename="C:\Users\Pablo\Documents\GitHub\HEATMAP\bZoom.png"
       inkscape:export-ydpi="11.3131"
       inkscape:export-xdpi="11.3131"
       style="fill:#96c8ef;stroke-width:0.63211197"
       d="m 256.27919,252.78537 c 8.22491,-8.22491 8.22787,-21.56179 0,-29.79008 l -29.79008,29.79008 c 8.22786,8.22786 21.56222,8.22786 29.79008,0 z"
       id="path16"
       inkscape:connector-curvature="0" /><path
       clip-path="url(#clipPath4608)"
       inkscape:export-filename="C:\Users\Pablo\Documents\GitHub\HEATMAP\bZoom.png"
       inkscape:export-ydpi="11.3131"
       inkscape:export-xdpi="11.3131"
       style="fill:#0099cc;fill-opacity:1;stroke-width:0.63211197"
       d="m 226.48911,252.78537 c -8.22491,-8.22491 -8.22786,-21.56179 0,-29.79008 8.22491,-8.22491 21.56517,-8.22491 29.79008,0 l 29.56933,-29.56933 -3.55993,-1.3435 c -8.83242,-3.33959 -18.11815,-5.02856 -27.59136,-5.02856 -20.82916,0 -40.41299,8.10864 -55.14098,22.83706 l -84.57383,84.57339 34.91386,34.91386 z"
       id="path18"
       inkscape:connector-curvature="0" /><path
       clip-path="url(#clipPath4604)"
       inkscape:export-filename="C:\Users\Pablo\Documents\GitHub\HEATMAP\bZoom.png"
       inkscape:export-ydpi="11.3131"
       inkscape:export-xdpi="11.3131"
       style="fill:#d1e7f8;stroke-width:0.63211197"
       d="m 226.48911,222.99529 c -8.22786,8.22786 -8.22491,21.56517 0,29.79008 l 29.79008,-29.79008 c -8.22491,-8.22491 -21.56517,-8.22491 -29.79008,0 z"
       id="path20"
       inkscape:connector-curvature="0" /></g><g
     id="g24" /><g
     id="g26" /><g
     id="g28" /><g
     id="g30" /><g
     id="g32" /><g
     id="g34" /><g
     id="g36" /><g
     id="g38" /><g
     id="g40" /><g
     id="g42" /><g
     id="g44" /><g
     id="g46" /><g
     id="g48" /><g
     id="g50" /><g
     id="g52" /><g
     id="g4578"
     transform="translate(510.49713,27.962128)" /><g
     id="g4580"
     transform="translate(510.49713,27.962128)" /><g
     id="g4582"
     transform="translate(510.49713,27.962128)" /><g
     id="g4584"
     transform="translate(510.49713,27.962128)" /><g
     id="g4586"
     transform="translate(510.49713,27.962128)" /><g
     id="g4588"
     transform="translate(510.49713,27.962128)" /><g
     id="g4590"
     transform="translate(510.49713,27.962128)" /><g
     id="g4592"
     transform="translate(510.49713,27.962128)" /><g
     id="g4594"
     transform="translate(510.49713,27.962128)" /><g
     id="g4596"
     transform="translate(510.49713,27.962128)" /><g
     id="g4598"
     transform="translate(510.49713,27.962128)" /><g
     id="g4600"
     transform="translate(510.49713,27.962128)" /><g
     id="g4602"
     transform="translate(510.49713,27.962128)" /><g
     id="g4604"
     transform="translate(510.49713,27.962128)" /><g
     id="g4606"
     transform="translate(510.49713,27.962128)" /></svg>