<?xml version="1.0" standalone="no"?>
<!DOCTYPE svg PUBLIC "-//W3C//DTD SVG 20010904//EN"
 "http://www.w3.org/TR/2001/REC-SVG-20010904/DTD/svg10.dtd">
<svg version="1.0" xmlns="http://www.w3.org/2000/svg"
 width="1348.000000pt" height="1348.000000pt" viewBox="0 0 1348.000000 1348.000000"
 preserveAspectRatio="xMidYMid meet">
<metadata>
Created by potrace 1.11, written by Peter Selinger 2001-2013
</metadata>
<g transform="translate(0.000000,1348.000000) scale(0.100000,-0.100000)"
fill="#000000" stroke="none">
<path d="M7204 13299 c-19 -21 -19 -144 -19 -6543 -1 -3586 1 -6527 3 -6533 4
-14 71 -18 73 -5 1 4 2 1944 3 4312 l1 4305 3005 2 c1653 2 3042 3 3088 3 69
0 85 3 102 20 20 20 20 33 20 2220 0 2187 0 2200 -20 2220 -20 20 -33 20
-3128 20 l-3109 0 -19 -21z"/>
<path d="M3225 10895 c-256 -33 -403 -75 -600 -171 -215 -105 -383 -234 -580
-445 -84 -90 -117 -129 -145 -169 -14 -19 -28 -37 -31 -40 -10 -8 -85 -122
-105 -160 -10 -19 -24 -42 -30 -50 -40 -55 -124 -290 -148 -415 -35 -177 -41
-250 -41 -500 1 -264 9 -335 57 -462 29 -78 135 -289 197 -392 28 -46 51 -86
51 -88 0 -16 105 -142 127 -152 83 -38 294 -91 483 -121 36 -5 74 -12 85 -14
11 -2 67 -9 125 -15 58 -6 123 -14 145 -17 143 -19 495 -23 715 -10 69 4 127
9 130 11 3 1 37 6 76 9 39 4 80 8 90 10 11 2 55 9 99 16 44 6 123 21 175 31
52 11 108 22 124 25 94 16 380 96 431 120 77 36 142 103 228 232 127 190 216
379 273 575 19 65 36 133 39 150 3 18 8 39 10 47 2 8 7 42 11 75 3 33 8 69 10
80 6 30 6 273 -1 325 -3 25 -7 65 -10 90 -26 214 -130 479 -265 682 -78 115
-168 219 -280 322 -191 176 -546 366 -765 410 -16 4 -41 9 -55 12 -54 13 -525
12 -625 -1z m485 -419 c131 -23 171 -33 265 -67 301 -109 536 -319 720 -643
49 -87 100 -201 112 -250 2 -11 9 -39 15 -61 12 -51 19 -542 8 -615 -17 -111
-22 -135 -47 -204 -64 -181 -208 -419 -315 -522 -55 -54 -159 -134 -173 -134
-3 0 -27 -11 -55 -24 -56 -27 -166 -62 -224 -70 -21 -4 -41 -8 -45 -10 -3 -2
-35 -7 -71 -11 -36 -4 -67 -8 -70 -10 -8 -5 -182 -24 -297 -33 -129 -9 -561
-9 -691 1 -318 24 -576 86 -647 155 -111 107 -289 419 -347 607 -53 173 -41
503 27 761 144 549 560 958 1115 1098 82 21 196 39 305 49 80 7 339 -3 415
-17z"/>
<path d="M3308 10285 c-2 -1 -29 -5 -60 -9 -145 -15 -324 -68 -435 -128 -160
-86 -258 -160 -383 -288 -199 -203 -314 -421 -375 -715 -13 -63 -13 -311 0
-397 34 -211 162 -479 272 -565 99 -78 229 -117 433 -130 183 -12 773 -4 872
12 13 2 61 6 108 10 128 9 283 34 354 55 193 60 374 275 459 546 51 160 61
237 61 424 0 153 -4 189 -27 290 -47 200 -158 389 -333 564 -157 156 -325 256
-504 297 -46 11 -53 12 -125 25 -38 6 -311 14 -317 9z m-137 -218 c93 -39 34
-112 -122 -152 -235 -60 -369 -156 -522 -372 -63 -89 -125 -156 -171 -184 -91
-56 -130 13 -72 125 33 63 117 184 171 246 133 152 191 209 267 259 122 82
347 121 449 78z"/>
<path d="M5411 8728 c-5 -13 -20 -54 -34 -93 -115 -321 -191 -472 -332 -665
-63 -86 -74 -106 -62 -115 8 -6 66 -58 128 -115 62 -58 142 -132 178 -165 36
-33 120 -114 186 -181 230 -230 329 -346 505 -587 47 -64 87 -117 90 -117 3 0
6 46 6 103 1 56 4 239 8 407 7 371 8 886 2 920 -3 14 -7 45 -10 70 -11 98 -77
225 -169 324 -50 54 -60 60 -266 146 -118 50 -216 90 -218 90 -2 0 -7 -10 -12
-22z"/>
<path d="M1120 8609 c-180 -98 -306 -212 -364 -331 -37 -75 -71 -193 -81 -277
-3 -26 -8 -58 -10 -72 -3 -13 -7 -64 -10 -114 -3 -49 -8 -119 -11 -155 -9
-117 -17 -937 -10 -966 l7 -28 42 45 c79 85 112 124 208 239 162 195 388 413
609 591 181 144 228 195 221 238 -1 8 -26 48 -55 90 -115 165 -268 482 -320
665 -36 124 -98 145 -226 75z"/>
<path d="M4727 7734 c-1 -1 -29 -5 -62 -8 -95 -11 -178 -25 -365 -61 -211 -41
-222 -43 -285 -51 -27 -3 -61 -8 -75 -10 -14 -2 -47 -7 -75 -10 -27 -3 -64 -7
-82 -9 -139 -19 -587 -25 -778 -11 -141 10 -260 21 -332 31 -131 19 -235 34
-263 40 -75 14 -272 36 -320 36 -69 -1 -104 -8 -143 -28 -39 -20 -147 -93
-147 -99 0 -3 29 -91 64 -197 81 -240 95 -320 91 -502 -2 -77 -6 -149 -8 -160
-3 -11 -14 -59 -25 -106 -23 -94 -58 -198 -121 -359 -44 -112 -76 -247 -86
-370 -3 -41 -8 -91 -10 -110 -5 -40 -15 -214 -20 -345 -16 -411 -33 -920 -50
-1570 -2 -88 -7 -252 -10 -365 -6 -202 -9 -328 -20 -790 -4 -129 -8 -311 -10
-405 -9 -352 -14 -1051 -7 -1061 5 -6 118 -10 317 -10 353 -1 547 -9 682 -29
24 -3 45 -6 48 -6 2 0 29 -13 59 -29 31 -16 64 -26 75 -23 17 4 24 17 38 73 5
21 11 472 6 486 -3 8 -103 12 -346 12 -397 1 -472 6 -507 31 -32 23 -29 67 7
97 49 41 148 53 648 79 129 7 164 11 172 18 4 5 9 46 17 157 4 41 9 103 12
138 l6 62 -138 0 c-190 1 -242 7 -294 33 -37 18 -47 29 -56 62 -25 89 33 119
291 150 139 16 158 21 192 54 25 24 26 26 52 146 34 160 91 253 196 320 158
102 349 78 487 -59 48 -48 72 -90 83 -141 12 -56 20 -237 19 -449 l0 -212 293
1 c449 0 559 -9 585 -49 11 -16 10 -64 -2 -85 -11 -21 -76 -47 -141 -55 -107
-15 -202 -25 -309 -31 -47 -3 -101 -8 -120 -10 -19 -2 -80 -7 -135 -11 -92 -6
-140 -10 -156 -13 -6 -1 -32 -149 -44 -248 -18 -148 -28 -540 -13 -549 4 -3
42 13 86 35 143 73 211 82 752 96 193 5 226 7 308 20 77 12 117 42 127 96 6
28 -43 55 -112 64 -30 4 -65 8 -77 10 -11 2 -77 6 -146 10 -263 12 -340 26
-375 67 -15 18 -23 38 -21 51 3 12 5 25 5 29 3 24 83 31 371 35 168 2 314 5
325 6 17 2 20 10 21 62 1 33 5 143 8 245 3 102 8 255 11 340 3 85 7 227 10
315 14 448 22 714 30 1080 3 138 8 349 10 470 8 319 8 1498 0 1715 -10 300
-21 530 -30 590 -2 14 -6 54 -10 90 -4 36 -15 103 -25 150 -45 204 -41 328 14
525 37 129 58 198 91 294 19 58 35 117 35 132 0 34 -38 66 -88 75 -32 6 -200
13 -205 8z m-157 -1261 c7 -423 5 -1186 -3 -1270 -14 -152 -25 -166 -146 -188
-82 -15 -347 -20 -1066 -20 -1021 0 -1138 7 -1179 70 -9 14 -14 25 -11 25 2 0
0 12 -5 26 -23 60 -30 512 -17 1154 3 151 6 312 6 358 l1 82 1208 0 1208 0 4
-237z"/>
<path d="M2360 6560 l-35 -5 0 -673 c0 -665 0 -673 20 -677 11 -2 474 -3 1029
-2 l1009 2 0 672 c0 370 -2 675 -5 678 -7 7 -1970 12 -2018 5z m1702 -346 c2
-47 1 -87 -2 -88 -3 -1 -322 -2 -709 -2 l-705 1 1 28 c1 15 1 54 2 87 l1 60
704 0 705 0 3 -86z m-1303 -602 c125 -101 83 -290 -74 -333 -76 -21 -171 18
-211 87 -30 51 -34 129 -9 182 48 104 203 138 294 64z m1239 -115 l3 -87 -487
2 -488 3 3 66 c2 54 7 103 10 104 1 0 216 0 478 0 l477 0 4 -88z"/>
<path d="M5121 7287 c-122 -255 -128 -608 -16 -952 14 -44 62 -165 106 -270
99 -233 92 -217 122 -295 23 -59 60 -172 149 -450 62 -195 129 -275 262 -315
88 -27 158 -33 546 -51 63 -2 151 -7 195 -9 44 -2 166 -7 270 -10 105 -3 220
-8 258 -10 37 -2 68 0 68 3 1 4 2 177 3 386 1 247 -2 380 -9 382 -5 1 -145 5
-310 7 -165 3 -311 7 -325 11 -14 3 -46 11 -72 17 -63 15 -133 61 -154 101
-10 18 -29 67 -43 108 -16 47 -32 76 -42 78 -9 2 -36 -13 -59 -33 -75 -63
-220 -125 -292 -125 -40 0 -95 59 -164 177 -96 165 -190 314 -249 397 -99 137
-142 226 -151 311 -6 50 -1 56 66 87 30 14 99 58 153 98 l99 73 -64 65 c-162
166 -289 282 -309 282 -4 0 -22 -29 -38 -63z"/>
<path d="M1358 7121 c-178 -177 -288 -302 -288 -326 0 -21 66 -81 150 -137 47
-30 95 -66 107 -80 33 -35 39 -78 15 -108 -18 -22 -29 -25 -87 -27 -74 -2
-129 12 -228 57 -76 34 -141 48 -152 31 -7 -13 50 -71 70 -71 7 0 27 -16 44
-35 34 -39 43 -103 17 -124 -21 -18 -112 -16 -221 5 -11 2 -39 7 -62 10 l-41
5 -125 -253 c-153 -309 -221 -472 -311 -743 -42 -123 -86 -267 -91 -296 -2
-11 -7 -29 -10 -39 -19 -61 -53 -245 -55 -301 -4 -84 -1 -97 21 -118 33 -31
120 -42 434 -56 66 -3 152 -8 190 -12 110 -10 127 -7 157 26 31 35 63 133 133
404 50 199 66 253 132 447 72 216 123 336 292 693 89 188 168 412 185 522 3
22 8 51 11 65 13 54 13 286 -1 349 -16 76 -83 290 -93 294 -3 2 -90 -80 -193
-182z"/>
<path d="M5625 6778 c-11 -6 -37 -24 -57 -40 -62 -48 -51 -94 66 -286 167
-276 284 -368 368 -291 27 26 29 33 23 67 -10 58 -107 248 -194 379 -116 175
-150 203 -206 171z"/>
<path d="M7416 5668 c-8 -13 -19 -50 -25 -83 -10 -60 -8 -533 2 -570 24 -90
49 -101 115 -54 212 152 271 344 163 532 -47 83 -177 197 -223 197 -10 0 -24
-10 -32 -22z"/>
<path d="M5179 5473 c0 -21 -2 -47 -4 -58 -2 -11 -7 -45 -10 -75 -4 -30 -8
-68 -10 -85 -2 -16 -7 -66 -10 -110 -3 -44 -8 -102 -10 -130 -7 -88 -18 -512
-19 -754 l-1 -235 70 -2 c39 -1 192 -5 340 -9 149 -4 316 -8 373 -9 l102 -3 0
384 0 383 -32 0 c-43 0 -244 27 -304 40 -99 22 -201 90 -263 174 -73 98 -109
184 -186 439 -14 48 -28 87 -31 87 -2 0 -4 -17 -5 -37z"/>
<path d="M1336 5192 c-24 -40 -133 -483 -212 -867 -2 -11 -16 -86 -31 -166
-42 -235 -32 -251 152 -253 97 -2 116 0 119 13 6 21 -2 1091 -8 1195 -6 81 -9
95 -20 78z"/>
<path d="M39 4319 c0 -8 -2 -22 -4 -31 -2 -9 -6 -34 -9 -55 -3 -21 -10 -60
-15 -88 -5 -27 -9 -93 -7 -145 8 -266 159 -426 395 -419 194 6 351 140 425
365 30 91 57 306 40 317 -10 6 -73 14 -159 22 -33 3 -82 7 -110 10 -45 4 -188
14 -290 20 -22 1 -91 6 -152 10 -93 6 -113 5 -114 -6z"/>
<path d="M4358 1055 c-2 -1 -43 -5 -93 -9 -134 -10 -172 -15 -259 -37 -158
-39 -245 -98 -295 -202 -49 -100 -59 -173 -58 -411 l2 -211 425 1 c392 0 709
8 770 18 14 2 50 7 80 11 190 24 305 87 352 192 36 81 53 256 35 363 -15 89
-80 171 -176 224 -93 50 -159 59 -483 61 -164 1 -299 1 -300 0z"/>
<path d="M1668 1015 c-2 -2 -57 -5 -124 -8 -170 -8 -234 -31 -323 -113 -118
-110 -172 -219 -174 -354 -2 -121 28 -204 102 -283 48 -52 99 -76 179 -86 66
-9 852 -6 987 3 233 16 325 26 347 37 37 19 51 102 53 314 3 222 -7 300 -48
360 -44 64 -88 86 -242 121 -27 6 -751 14 -757 9z"/>
</g>
</svg>
